<?xml version="1.0" encoding="UTF-8" standalone="no"?>
<!-- Created with Inkscape (http://www.inkscape.org/) -->

<svg
   xmlns:dc="http://purl.org/dc/elements/1.1/"
   xmlns:cc="http://creativecommons.org/ns#"
   xmlns:rdf="http://www.w3.org/1999/02/22-rdf-syntax-ns#"
   xmlns:svg="http://www.w3.org/2000/svg"
   xmlns="http://www.w3.org/2000/svg"
   xmlns:sodipodi="http://sodipodi.sourceforge.net/DTD/sodipodi-0.dtd"
   xmlns:inkscape="http://www.inkscape.org/namespaces/inkscape"
   version="1.1"
   width="120"
   height="120"
   id="svg2"
   inkscape:version="0.48.1 r9760"
   sodipodi:docname="PropPhoneButtons_v2.svg"
   style="display:inline;enable-background:new"
   inkscape:export-filename="/Users/main_brain/Documents/Xcoding/PropPhone/Phone Graphics/png/phoneButtDefault.png"
   inkscape:export-xdpi="94.739998"
   inkscape:export-ydpi="94.739998">
  <sodipodi:namedview
     pagecolor="#ffffff"
     bordercolor="#666666"
     borderopacity="1"
     objecttolerance="10"
     gridtolerance="10"
     guidetolerance="10"
     inkscape:pageopacity="0"
     inkscape:pageshadow="2"
     inkscape:window-width="1435"
     inkscape:window-height="856"
     id="namedview3000"
     showgrid="false"
     inkscape:document-units="px"
     showguides="true"
     inkscape:guide-bbox="true"
     inkscape:snap-grids="false"
     inkscape:snap-object-midpoints="true"
     inkscape:snap-to-guides="false"
     inkscape:zoom="4.0441545"
     inkscape:cx="66.519456"
     inkscape:cy="70.057253"
     inkscape:window-x="1284"
     inkscape:window-y="22"
     inkscape:window-maximized="0"
     inkscape:current-layer="g3081">
    <sodipodi:guide
       orientation="0,1"
       position="60.000001,59.999999"
       id="guide7434" />
  </sodipodi:namedview>
  <defs
     id="defs4">
    <inkscape:perspective
       sodipodi:type="inkscape:persp3d"
       inkscape:vp_x="22.501613 : -123.47292 : 1"
       inkscape:vp_y="0 : 621.30558 : 0"
       inkscape:vp_z="72.27681 : -112.09848 : 1"
       inkscape:persp3d-origin="49.1201 : -141.83352 : 1"
       id="perspective28992" />
    <filter
       id="filter7387"
       inkscape:menu-tooltip="Make the lightest parts of the object progressively transparent"
       inkscape:menu="Transparency utilities"
       inkscape:label="Light eraser"
       height="1"
       width="1"
       y="0"
       x="0"
       color-interpolation-filters="sRGB">
      <feColorMatrix
         id="feColorMatrix7389"
         result="result14"
         type="luminanceToAlpha"
         in="SourceGraphic" />
      <feComposite
         id="feComposite7391"
         in2="result14"
         in="SourceGraphic"
         result="fbSourceGraphic"
         operator="out" />
      <feBlend
         id="feBlend7393"
         in2="fbSourceGraphic"
         mode="normal"
         result="result15" />
    </filter>
    <filter
       id="filter9299"
       inkscape:menu-tooltip="Make the lightest parts of the object progressively transparent"
       inkscape:menu="Transparency utilities"
       inkscape:label="Light eraser"
       height="1"
       width="1"
       y="0"
       x="0"
       color-interpolation-filters="sRGB">
      <feColorMatrix
         id="feColorMatrix9301"
         result="result14"
         type="luminanceToAlpha"
         in="SourceGraphic" />
      <feComposite
         id="feComposite9303"
         in2="result14"
         in="SourceGraphic"
         result="fbSourceGraphic"
         operator="out" />
      <feBlend
         id="feBlend9305"
         in2="fbSourceGraphic"
         mode="normal"
         result="result15" />
    </filter>
    <filter
       id="filter3111"
       inkscape:label="Invert"
       x="0"
       y="0"
       width="1"
       height="1"
       inkscape:menu="Color"
       inkscape:menu-tooltip="Invert colors"
       color-interpolation-filters="sRGB">
      <feColorMatrix
         id="feColorMatrix3113"
         type="saturate"
         values="1"
         result="fbSourceGraphic" />
      <feColorMatrix
         id="feColorMatrix3115"
         in="fbSourceGraphic"
         values="-1 0 0 0 1 0 -1 0 0 1 0 0 -1 0 1 0 0 0 1 0 " />
    </filter>
    <filter
       inkscape:collect="always"
       id="filter29212"
       color-interpolation-filters="sRGB">
      <feBlend
         inkscape:collect="always"
         mode="lighten"
         in2="BackgroundImage"
         id="feBlend29214" />
    </filter>
  </defs>
  <metadata
     id="metadata7">
    <rdf:RDF>
      <cc:Work
         rdf:about="">
        <dc:format>image/svg+xml</dc:format>
        <dc:type
           rdf:resource="http://purl.org/dc/dcmitype/StillImage" />
        <dc:title />
      </cc:Work>
    </rdf:RDF>
  </metadata>
  <g
     inkscape:groupmode="layer"
     id="layer8"
     inkscape:label="utilityBass"
     style="display:inline;filter:url(#filter29212)"
     transform="translate(0,6)"
     sodipodi:insensitive="true">
    <rect
       style="fill:#000000;fill-opacity:1;stroke:none"
       id="rect7424"
       width="120"
       height="120"
       x="0"
       y="-6" />
  </g>
  <g
     inkscape:groupmode="layer"
     id="layer11"
     inkscape:label="base default"
     style="display:none"
     transform="translate(0,6)"
     sodipodi:insensitive="true">
    <rect
       style="fill:#ffffff;fill-opacity:1;fill-rule:evenodd;stroke:none"
       id="rect9414"
       width="88.283875"
       height="89.256332"
       x="15.858065"
       y="9.3718367" />
  </g>
  <g
     inkscape:groupmode="layer"
     id="layer10"
     inkscape:label="base highlighted"
     style="display:inline"
     transform="translate(0,6)">
    <rect
       style="fill:#5dff04;fill-opacity:1;fill-rule:evenodd;stroke:none"
       id="rect9316"
       width="98"
       height="98"
       x="11"
       y="5" />
  </g>
  <g
     inkscape:groupmode="layer"
     id="layer1"
     inkscape:label="phone default"
     style="display:none"
     sodipodi:insensitive="true">
    <text
       xml:space="preserve"
       style="font-size:72px;font-style:normal;font-variant:normal;font-weight:normal;font-stretch:normal;text-align:start;line-height:125%;letter-spacing:0px;word-spacing:0px;writing-mode:lr-tb;text-anchor:start;fill:#000000;fill-opacity:1;stroke:none;font-family:Glyphish;-inkscape-font-specification:Glyphish"
       x="54.552147"
       y="45.515339"
       id="text3090"
       sodipodi:linespacing="125%"><tspan
         sodipodi:role="line"
         id="tspan3092"
         x="54.552147"
         y="45.515339" /></text>
    <flowRoot
       xml:space="preserve"
       id="flowRoot3098"
       style="font-size:40px;font-style:normal;font-weight:normal;line-height:125%;letter-spacing:0px;word-spacing:0px;fill:#000000;fill-opacity:1;stroke:none;font-family:Bitstream Vera Sans"><flowRegion
         id="flowRegion3100"><rect
           id="rect3102"
           width="127.98773"
           height="477.681"
           x="58.398773"
           y="-440.20859" /></flowRegion><flowPara
         id="flowPara3104" /></flowRoot>    <text
       xml:space="preserve"
       style="font-size:40px;font-style:normal;font-variant:normal;font-weight:normal;font-stretch:normal;text-align:start;line-height:125%;letter-spacing:0px;word-spacing:0px;writing-mode:lr-tb;text-anchor:start;fill:#000000;fill-opacity:1;stroke:none;font-family:Glyphish;-inkscape-font-specification:Glyphish"
       x="104.90798"
       y="-317.46625"
       id="text3106"
       sodipodi:linespacing="125%"><tspan
         sodipodi:role="line"
         id="tspan3108"
         x="104.90798"
         y="-317.46625" /></text>
    <text
       xml:space="preserve"
       style="font-size:144px;font-style:normal;font-variant:normal;font-weight:normal;font-stretch:normal;text-align:start;line-height:125%;letter-spacing:0px;word-spacing:0px;writing-mode:lr-tb;text-anchor:start;fill:#000000;fill-opacity:1;stroke:none;font-family:Glyphish;-inkscape-font-specification:Glyphish"
       x="54.202454"
       y="58.104294"
       id="text3110"
       sodipodi:linespacing="125%"><tspan
         sodipodi:role="line"
         id="tspan3112"
         x="54.202454"
         y="58.104294" /></text>
    <g
       style="font-size:132.66998291px;font-style:normal;font-variant:normal;font-weight:normal;font-stretch:normal;text-align:start;line-height:125%;letter-spacing:0px;word-spacing:0px;writing-mode:lr-tb;text-anchor:start;fill:#000000;fill-opacity:1;stroke:none;filter:url(#filter3111);font-family:Glyphish;-inkscape-font-specification:Glyphish"
       id="text3271"
       transform="matrix(1.0014538,0,0,1.0014766,-11.936015,3.9423704)">
      <path
         d="m 54.634205,43.717805 c -0.796082,0.796078 -1.194091,1.724767 -1.19403,2.78607 -6.1e-5,1.238308 0.442172,2.520783 1.3267,3.847429 0.884403,1.326751 1.857315,2.697673 2.91874,4.11277 2.211098,2.741891 4.510709,5.306842 6.898839,7.694859 2.476431,2.388097 4.820265,4.466592 7.031509,6.235489 2.476424,2.034305 4.510695,3.58212 6.102819,4.643449 1.680399,1.061388 3.139768,1.592068 4.37811,1.59204 0.972822,2.8e-5 1.813064,-0.353758 2.520729,-1.06136 l 19.369819,19.369818 c -0.61924,0.619135 -1.76905,1.282484 -3.44942,1.990049 -1.68059,0.619134 -3.89176,0.928697 -6.6335,0.92869 -2.211266,7e-6 -4.776216,-0.309556 -7.694859,-0.92869 C 83.379277,94.220853 80.239424,93.026825 76.790092,91.346329 73.429038,89.577409 69.758505,87.233575 65.778484,84.31482 61.798314,81.307655 57.552879,77.504452 53.042165,72.905201 48.796669,68.571349 45.30303,64.502807 42.561237,60.699563 c -2.741895,-3.803161 -4.908835,-7.2968 -6.50083,-10.480929 -1.503635,-3.272471 -2.564994,-6.235431 -3.184079,-8.888889 -0.619167,-2.741782 -0.92873,-5.174063 -0.92869,-7.296849 -4e-5,-2.653328 0.309523,-4.820269 0.92869,-6.500829 0.707532,-1.68041 1.326658,-2.874438 1.85738,-3.582089 L 54.634205,43.717805 M 105.44681,91.478999 86.076991,72.109181 91.51646,66.537042 c 0.53058,-0.61909 1.238153,-0.928653 2.12272,-0.92869 0.884364,3.7e-5 1.63616,0.3096 2.25539,0.92869 l 15.12438,15.124378 c 0.53056,0.619147 0.7959,1.326719 0.79602,2.12272 0.0883,0.796038 -0.17702,1.547833 -0.79602,2.25539 l -5.57214,5.439469 M 56.226245,42.258435 36.325747,22.357938 l 5.43947,-5.43947 c 0.442183,-0.530593 1.061309,-0.840156 1.857379,-0.928689 0.884415,-0.08836 1.680434,0.221202 2.38806,0.928689 l 15.655058,15.522388 c 1.326629,1.503662 1.326629,2.96303 0,4.37811 l -5.439469,5.439469"
         id="path3280"
         inkscape:connector-curvature="0" />
    </g>
    <text
       xml:space="preserve"
       style="font-size:40px;font-style:normal;font-variant:normal;font-weight:normal;font-stretch:normal;text-align:start;line-height:125%;letter-spacing:0px;word-spacing:0px;writing-mode:lr-tb;text-anchor:start;fill:#000000;fill-opacity:1;stroke:none;font-family:Glyphish;-inkscape-font-specification:Glyphish"
       x="77.631905"
       y="5.6503057"
       id="text3275"
       sodipodi:linespacing="125%"><tspan
         sodipodi:role="line"
         id="tspan3277"
         x="77.631905"
         y="5.6503057"> </tspan></text>
  </g>
  <g
     style="display:none"
     inkscape:label="phone highlighted"
     id="g3081"
     inkscape:groupmode="layer"
     sodipodi:insensitive="true">
    <text
       sodipodi:linespacing="125%"
       id="text3083"
       y="45.515339"
       x="54.552147"
       style="font-size:72px;font-style:normal;font-variant:normal;font-weight:normal;font-stretch:normal;text-align:start;line-height:125%;letter-spacing:0px;word-spacing:0px;writing-mode:lr-tb;text-anchor:start;fill:#000000;fill-opacity:1;stroke:none;font-family:Glyphish;-inkscape-font-specification:Glyphish"
       xml:space="preserve"><tspan
         y="45.515339"
         x="54.552147"
         id="tspan3085"
         sodipodi:role="line" /></text>
    <flowRoot
       style="font-size:40px;font-style:normal;font-weight:normal;line-height:125%;letter-spacing:0px;word-spacing:0px;fill:#000000;fill-opacity:1;stroke:none;font-family:Bitstream Vera Sans"
       id="flowRoot3087"
       xml:space="preserve"><flowRegion
         id="flowRegion3089"><rect
           y="-440.20859"
           x="58.398773"
           height="477.681"
           width="127.98773"
           id="rect3091" /></flowRegion><flowPara
         id="flowPara3093" /></flowRoot>    <text
       sodipodi:linespacing="125%"
       id="text3095"
       y="-317.46625"
       x="104.90798"
       style="font-size:40px;font-style:normal;font-variant:normal;font-weight:normal;font-stretch:normal;text-align:start;line-height:125%;letter-spacing:0px;word-spacing:0px;writing-mode:lr-tb;text-anchor:start;fill:#000000;fill-opacity:1;stroke:none;font-family:Glyphish;-inkscape-font-specification:Glyphish"
       xml:space="preserve"><tspan
         y="-317.46625"
         x="104.90798"
         id="tspan3097"
         sodipodi:role="line" /></text>
    <text
       sodipodi:linespacing="125%"
       id="text3099"
       y="58.104294"
       x="54.202454"
       style="font-size:144px;font-style:normal;font-variant:normal;font-weight:normal;font-stretch:normal;text-align:start;line-height:125%;letter-spacing:0px;word-spacing:0px;writing-mode:lr-tb;text-anchor:start;fill:#000000;fill-opacity:1;stroke:none;font-family:Glyphish;-inkscape-font-specification:Glyphish"
       xml:space="preserve"><tspan
         y="58.104294"
         x="54.202454"
         id="tspan3101"
         sodipodi:role="line" /></text>
    <text
       sodipodi:linespacing="125%"
       id="text3107"
       y="5.6503057"
       x="77.631905"
       style="font-size:40px;font-style:normal;font-variant:normal;font-weight:normal;font-stretch:normal;text-align:start;line-height:125%;letter-spacing:0px;word-spacing:0px;writing-mode:lr-tb;text-anchor:start;fill:#000000;fill-opacity:1;stroke:none;font-family:Glyphish;-inkscape-font-specification:Glyphish"
       xml:space="preserve"><tspan
         y="5.6503057"
         x="77.631905"
         id="tspan3109"
         sodipodi:role="line"> </tspan></text>
    <text
       xml:space="preserve"
       style="font-size:40px;font-style:normal;font-variant:normal;font-weight:normal;font-stretch:normal;text-align:start;line-height:125%;letter-spacing:0px;word-spacing:0px;writing-mode:lr-tb;text-anchor:start;fill:#000000;fill-opacity:1;stroke:none;font-family:Glyphish;-inkscape-font-specification:Glyphish"
       x="66.092026"
       y="22.785275"
       id="text28969"
       sodipodi:linespacing="125%"><tspan
         sodipodi:role="line"
         id="tspan28971"
         x="66.092026"
         y="22.785275"></tspan></text>
    <text
       xml:space="preserve"
       style="font-size:40px;font-style:normal;font-variant:normal;font-weight:normal;font-stretch:normal;text-align:start;line-height:125%;letter-spacing:0px;word-spacing:0px;writing-mode:lr-tb;text-anchor:start;fill:#000000;fill-opacity:1;stroke:none;font-family:Glyphish;-inkscape-font-specification:Glyphish"
       x="55.251534"
       y="29.77914"
       id="text28977"
       sodipodi:linespacing="125%"><tspan
         sodipodi:role="line"
         id="tspan28979"
         x="55.251534"
         y="29.77914"></tspan></text>
    <text
       xml:space="preserve"
       style="font-size:40px;font-style:normal;font-variant:normal;font-weight:normal;font-stretch:normal;text-align:start;line-height:125%;letter-spacing:0px;word-spacing:0px;writing-mode:lr-tb;text-anchor:start;fill:#000000;fill-opacity:1;stroke:none;font-family:Glyphish;-inkscape-font-specification:Glyphish"
       x="32.871166"
       y="102.16564"
       id="text28981"
       sodipodi:linespacing="125%"><tspan
         sodipodi:role="line"
         id="tspan28983"
         x="32.871166"
         y="102.16564"> </tspan></text>
    <g
       style="font-size:189.05473328px;font-style:normal;font-variant:normal;font-weight:normal;font-stretch:normal;text-align:start;line-height:125%;letter-spacing:0px;word-spacing:0px;writing-mode:lr-tb;text-anchor:start;fill:#b3b3b3;fill-opacity:1;stroke:none;font-family:Glyphish;-inkscape-font-specification:Glyphish"
       id="text28985"
       transform="matrix(1.0365924,0,0,1.0366161,-2.5094247,-1.526422)">
      <path
         d="m 35.713898,41.970593 c -1.134416,1.134411 -1.70158,2.457793 -1.701492,3.970149 -8.8e-5,1.764589 0.630094,3.592117 1.890547,5.482588 1.260274,1.890619 2.646674,3.844183 4.159204,5.860696 3.150816,3.907196 6.427761,7.562251 9.830846,10.965175 3.528915,3.403039 6.868879,6.364894 10.019901,8.885572 3.528905,2.898885 6.427741,5.104522 8.696518,6.616916 2.394569,1.512478 4.474169,2.268697 6.238806,2.268657 1.386272,4e-5 2.583617,-0.504106 3.59204,-1.512438 L 106.04226,112.1099 c -0.88241,0.88227 -2.52089,1.82754 -4.91542,2.83582 -2.394849,0.88227 -5.545758,1.32339 -9.45274,1.32338 -3.151055,1e-5 -6.806109,-0.44111 -10.965175,-1.32338 -4.033298,-1.00828 -8.507589,-2.70977 -13.422886,-5.10448 C 62.496536,107.32053 57.266027,103.98057 51.594496,99.821341 45.922755,95.536131 39.873009,90.116567 33.445242,83.562634 27.395409,77.386895 22.416973,71.589222 18.509918,66.169599 14.602718,60.750095 11.514828,55.771659 9.2462358,51.234275 7.1035549,46.571004 5.5911186,42.348786 4.7089222,38.567608 3.8266095,34.660568 3.3854822,31.194568 3.3855391,28.169598 3.3854822,24.388604 3.8266095,21.300713 4.7089222,18.905916 5.7171549,16.511332 6.5994095,14.809841 7.3556885,13.801438 L 35.713898,41.970593 M 108.12186,110.0303 80.51987,82.428306 88.271114,74.488007 c 0.756077,-0.882203 1.764368,-1.32333 3.024876,-1.323383 1.260219,5.3e-5 2.331528,0.44118 3.213931,1.323383 l 21.552239,21.55224 c 0.75605,0.882284 1.13416,1.890575 1.13433,3.024876 0.12586,1.134357 -0.25224,2.205667 -1.13433,3.213927 l -7.9403,7.75125 M 37.982555,39.890991 9.6243453,11.532781 17.375589,3.7815369 C 18.0057,3.0254407 18.887955,2.5843134 20.022356,2.4581538 21.282646,2.3322407 22.416973,2.773368 23.425341,3.7815369 L 45.733799,25.900941 c 1.890447,2.142718 1.890447,4.222318 0,6.238806 l -7.751244,7.751244"
         id="path28990"
         inkscape:connector-curvature="0" />
    </g>
  </g>
  <g
     inkscape:groupmode="layer"
     id="layer16"
     inkscape:label="iPod default"
     style="display:none">
    <g
       transform="matrix(1.5454897,0,0,1.5454897,-1052.7526,-2537.8306)"
       id="ipod">
      <rect
         style="opacity:0.3"
         x="710"
         y="1661"
         width="20"
         height="15"
         id="rect10198" />
      <path
         inkscape:connector-curvature="0"
         d="m 723.188,1689.107 c 0,1.76 -1.428,3.188 -3.188,3.188 -1.76,0 -3.188,-1.428 -3.188,-3.188 0,-1.761 1.428,-3.188 3.188,-3.188 1.76,0 3.188,1.428 3.188,3.188 z m 9.812,10.161 c 0,1.509 -1.224,2.732 -2.732,2.732 h -20.535 c -1.509,0 -2.732,-1.224 -2.732,-2.732 v -38.535 c 0,-1.509 1.224,-2.732 2.732,-2.732 h 20.535 c 1.509,0 2.732,1.224 2.732,2.732 v 38.535 z m -4.804,-10.161 c 0,-4.527 -3.669,-8.196 -8.196,-8.196 -4.527,0 -8.196,3.669 -8.196,8.196 0,4.526 3.669,8.196 8.196,8.196 4.527,0 8.196,-3.669 8.196,-8.196 z M 730,1661 h -20 v 15 h 20 v -15 z"
         id="path10200" />
    </g>
  </g>
  <g
     inkscape:groupmode="layer"
     id="layer17"
     inkscape:label="iPod highlighted"
     style="display:none">
    <g
       transform="matrix(2.2727789,0,0,2.2727789,-1576.4019,-3758.2697)"
       id="ipod-5">
      <rect
         style="opacity:0.3"
         x="710"
         y="1661"
         width="20"
         height="15"
         id="rect10198-7" />
      <path
         inkscape:connector-curvature="0"
         d="m 723.188,1689.107 c 0,1.76 -1.428,3.188 -3.188,3.188 -1.76,0 -3.188,-1.428 -3.188,-3.188 0,-1.761 1.428,-3.188 3.188,-3.188 1.76,0 3.188,1.428 3.188,3.188 z m 9.812,10.161 c 0,1.509 -1.224,2.732 -2.732,2.732 h -20.535 c -1.509,0 -2.732,-1.224 -2.732,-2.732 v -38.535 c 0,-1.509 1.224,-2.732 2.732,-2.732 h 20.535 c 1.509,0 2.732,1.224 2.732,2.732 v 38.535 z m -4.804,-10.161 c 0,-4.527 -3.669,-8.196 -8.196,-8.196 -4.527,0 -8.196,3.669 -8.196,8.196 0,4.526 3.669,8.196 8.196,8.196 4.527,0 8.196,-3.669 8.196,-8.196 z M 730,1661 h -20 v 15 h 20 v -15 z"
         id="path10200-9" />
    </g>
  </g>
  <g
     inkscape:groupmode="layer"
     id="layer2"
     inkscape:label="loop default"
     style="display:none"
     transform="translate(0,6)">
    <g
       transform="matrix(1.31957,0,0,1.3357002,-383.24334,-1163.69)"
       id="roundabout-5">
      <path
         inkscape:connector-curvature="0"
         d="m 330.654,900.894 -14.385,3.598 0.549,-15.064 4.488,3.721 c 2.416,-1.891 5.221,-3.359 8.363,-4.223 8.57,-2.354 17.32,0.27 23.219,6.096 l -5.426,3.176 c -4.369,-3.592 -10.348,-5.092 -16.205,-3.484 -1.877,0.516 -3.611,1.334 -5.186,2.385 l 4.583,3.795 z m -2.595,27.293 c -4.447,-2.199 -7.979,-6.201 -9.393,-11.352 -0.723,-2.633 -0.818,-5.332 -0.348,-7.939 L 312.88,905.8 c -1.09,4.004 -1.18,8.332 0,12.623 2.066,7.529 7.504,13.211 14.234,15.904 l -0.945,6.146 13.207,-7.271 -10.476,-10.488 -0.841,5.473 z m 37.017,-22.098 -13.143,-7.387 -3.389,14.434 5.406,-2.305 c 0.254,3.51 -0.504,7.016 -2.285,10.143 -2.168,3.811 -5.582,6.629 -9.684,8.061 l -0.006,6.268 c 0.135,-0.035 0.268,-0.053 0.4,-0.09 6.391,-1.754 11.465,-5.932 14.504,-11.271 2.617,-4.6 3.711,-10.061 2.848,-15.57 l 5.349,-2.283 z"
         id="path8916-9" />
    </g>
  </g>
  <g
     style="display:none"
     inkscape:label="loop highlighted"
     id="g7430"
     inkscape:groupmode="layer"
     transform="translate(0,6)">
    <g
       transform="matrix(1.8851,0,0,1.9081431,-572.34448,-1685.259)"
       id="roundabout">
      <path
         inkscape:connector-curvature="0"
         d="m 330.19764,900.73779 -14.385,3.598 0.549,-15.064 4.488,3.721 c 2.416,-1.891 5.221,-3.359 8.363,-4.223 8.57,-2.354 17.32,0.27 23.219,6.096 l -5.426,3.176 c -4.369,-3.592 -10.348,-5.092 -16.205,-3.484 -1.877,0.516 -3.611,1.334 -5.186,2.385 l 4.583,3.795 z m -2.595,27.293 c -4.447,-2.199 -7.979,-6.201 -9.393,-11.352 -0.723,-2.633 -0.818,-5.332 -0.348,-7.939 l -5.438,-3.096 c -1.09,4.004 -1.18,8.332 0,12.623 2.066,7.529 7.504,13.211 14.234,15.904 l -0.945,6.146 13.207,-7.271 -10.476,-10.488 -0.841,5.473 z m 37.017,-22.098 -13.143,-7.387 -3.389,14.434 5.406,-2.305 c 0.254,3.51 -0.504,7.016 -2.285,10.143 -2.168,3.811 -5.582,6.629 -9.684,8.061 l -0.006,6.268 c 0.135,-0.035 0.268,-0.053 0.4,-0.09 6.391,-1.754 11.465,-5.932 14.504,-11.271 2.617,-4.6 3.711,-10.061 2.848,-15.57 l 5.349,-2.283 z"
         id="path8916" />
    </g>
  </g>
  <g
     inkscape:groupmode="layer"
     id="layer14"
     inkscape:label="timer default"
     style="display:none">
    <path
       inkscape:connector-curvature="0"
       id="stopwatch-9"
       d="m 60.159102,36.877878 c -16.022076,0 -29.056604,13.034528 -29.056604,29.056603 0,16.022076 13.034528,29.056604 29.056604,29.056604 16.022075,0 29.056603,-13.034528 29.056603,-29.056604 0,-16.022075 -13.034528,-29.056603 -29.056603,-29.056603 z m 0,50.188679 c -11.651698,0 -21.132076,-9.480378 -21.132076,-21.132076 0,-11.651698 9.480378,-21.132075 21.132076,-21.132075 11.651698,0 21.132075,9.480377 21.132075,21.132075 0,11.651698 -9.480377,21.132076 -21.132075,21.132076 z m 5.283019,-21.132076 c 0,1.950755 -1.069812,3.634717 -2.64151,4.55 v 1.998302 c 0,0.726415 -0.59434,1.376226 -1.320754,1.376226 h -2.64151 c -0.726415,0 -1.320755,-0.649811 -1.320755,-1.376226 v -1.998302 c -1.571698,-0.915283 -2.641509,-2.600566 -2.641509,-4.55 0,-1.949434 1.069811,-3.634717 2.641509,-4.55 V 50.085424 c 0,-0.726415 0.59434,-1.320754 1.320755,-1.320754 h 2.64151 c 0.726414,0 1.320754,0.594339 1.320754,1.320754 v 11.299057 c 1.571698,0.915283 2.64151,2.599245 2.64151,4.55 z M 60.159102,32.586746 c -1.341887,0 -2.662642,0.08981 -3.962265,0.24698 V 26.31184 c 0,-0.726416 0.59434,-1.320755 1.320755,-1.320755 h 5.283019 c 0.726415,0 1.320755,0.594339 1.320755,1.320755 v 6.521886 c -1.299623,-0.157169 -2.620378,-0.24698 -3.962264,-0.24698 z m 30.704906,9.03 -3.910755,3.909433 C 86.144951,44.497312 85.274574,43.500141 84.326271,42.550519 83.37797,41.602217 82.37948,40.73184 81.350611,39.923538 l 3.909434,-3.909435 c 0.515094,-0.513773 1.353774,-0.513773 1.868868,0 l 3.735095,3.735095 c 0.513773,0.512453 0.513773,1.353774 0,1.867548 z" />
  </g>
  <g
     inkscape:groupmode="layer"
     id="layer15"
     inkscape:label="timer highlighted"
     style="display:none">
    <path
       inkscape:connector-curvature="0"
       id="stopwatch"
       d="m 60.154662,24.508435 c -22.88868,0 -41.509436,18.620756 -41.509436,41.509436 0,22.88868 18.620756,41.509429 41.509436,41.509429 22.888681,0 41.509438,-18.620749 41.509438,-41.509429 0,-22.88868 -18.620757,-41.509436 -41.509438,-41.509436 z m 0,71.698116 c -16.645284,0 -30.18868,-13.543397 -30.18868,-30.18868 0,-16.645283 13.543396,-30.18868 30.18868,-30.18868 16.645284,0 30.188684,13.543397 30.188684,30.18868 0,16.645283 -13.5434,30.18868 -30.188684,30.18868 z m 7.547171,-30.18868 c 0,2.786792 -1.528303,5.192453 -3.773586,6.5 v 2.854718 c 0,1.037735 -0.849057,1.966037 -1.886793,1.966037 H 58.26787 c -1.037736,0 -1.886793,-0.928302 -1.886793,-1.966037 v -2.854718 c -2.245283,-1.307547 -3.773585,-3.715093 -3.773585,-6.5 0,-2.784906 1.528302,-5.192453 3.773585,-6.5 v -16.14151 c 0,-1.037737 0.849057,-1.886793 1.886793,-1.886793 h 3.773584 c 1.037736,0 1.886793,0.849056 1.886793,1.886793 v 16.14151 c 2.245283,1.307547 3.773586,3.713208 3.773586,6.5 z M 60.154662,18.378245 c -1.916982,0 -3.803774,0.128303 -5.660377,0.352831 V 9.4140925 c 0,-1.037737 0.849055,-1.8867955 1.886792,-1.8867955 h 7.54717 c 1.037737,0 1.886792,0.8490585 1.886792,1.8867955 v 9.3169835 c -1.856603,-0.224528 -3.743396,-0.352831 -5.660377,-0.352831 z m 43.864158,12.900001 -5.586794,5.584906 c -1.15472,-1.469811 -2.39812,-2.89434 -3.75283,-4.250942 -1.35472,-1.354718 -2.78114,-2.598114 -4.25095,-3.752831 l 5.58491,-5.584906 c 0.73585,-0.733962 1.93396,-0.733962 2.66981,0 l 5.335854,5.335849 c 0.73397,0.732076 0.73397,1.933962 0,2.667924 z" />
  </g>
</svg>
