<?xml version="1.0" encoding="UTF-8" standalone="no"?>
<!-- Created with Inkscape (http://www.inkscape.org/) -->

<svg
   xmlns:dc="http://purl.org/dc/elements/1.1/"
   xmlns:cc="http://creativecommons.org/ns#"
   xmlns:rdf="http://www.w3.org/1999/02/22-rdf-syntax-ns#"
   xmlns:svg="http://www.w3.org/2000/svg"
   xmlns="http://www.w3.org/2000/svg"
   xmlns:sodipodi="http://sodipodi.sourceforge.net/DTD/sodipodi-0.dtd"
   xmlns:inkscape="http://www.inkscape.org/namespaces/inkscape"
   version="1.1"
   width="120"
   height="120"
   id="svg2"
   inkscape:version="0.48.1 r9760"
   sodipodi:docname="PropPhoneButtons_v2.svg"
   style="display:inline"
   inkscape:export-filename="/Users/main_brain/Documents/Xcoding/PropPhone/Phone Graphics/png/Icon Buttons/heart_default.png"
   inkscape:export-xdpi="94.739998"
   inkscape:export-ydpi="94.739998">
  <sodipodi:namedview
     pagecolor="#ffffff"
     bordercolor="#666666"
     borderopacity="1"
     objecttolerance="10"
     gridtolerance="10"
     guidetolerance="10"
     inkscape:pageopacity="0"
     inkscape:pageshadow="2"
     inkscape:window-width="1239"
     inkscape:window-height="819"
     id="namedview3000"
     showgrid="false"
     inkscape:document-units="px"
     showguides="true"
     inkscape:guide-bbox="true"
     inkscape:snap-grids="false"
     inkscape:snap-object-midpoints="true"
     inkscape:snap-to-guides="false"
     inkscape:zoom="4.6182777"
     inkscape:cx="76.661535"
     inkscape:cy="76.738967"
     inkscape:window-x="1280"
     inkscape:window-y="22"
     inkscape:window-maximized="0"
     inkscape:current-layer="layer8"
     inkscape:snap-nodes="true"
     inkscape:snap-global="true">
    <sodipodi:guide
       orientation="0,1"
       position="60.000001,59.999999"
       id="guide7434" />
  </sodipodi:namedview>
  <defs
     id="defs4">
    <inkscape:perspective
       sodipodi:type="inkscape:persp3d"
       inkscape:vp_x="22.501613 : -123.47292 : 1"
       inkscape:vp_y="0 : 621.30558 : 0"
       inkscape:vp_z="72.27681 : -112.09848 : 1"
       inkscape:persp3d-origin="49.1201 : -141.83352 : 1"
       id="perspective28992" />
    <filter
       id="filter7387"
       inkscape:menu-tooltip="Make the lightest parts of the object progressively transparent"
       inkscape:menu="Transparency utilities"
       inkscape:label="Light eraser"
       height="1"
       width="1"
       y="0"
       x="0"
       color-interpolation-filters="sRGB">
      <feColorMatrix
         id="feColorMatrix7389"
         result="result14"
         type="luminanceToAlpha"
         in="SourceGraphic" />
      <feComposite
         id="feComposite7391"
         in2="result14"
         in="SourceGraphic"
         result="fbSourceGraphic"
         operator="out" />
      <feBlend
         id="feBlend7393"
         in2="fbSourceGraphic"
         mode="normal"
         result="result15" />
    </filter>
    <filter
       id="filter9299"
       inkscape:menu-tooltip="Make the lightest parts of the object progressively transparent"
       inkscape:menu="Transparency utilities"
       inkscape:label="Light eraser"
       height="1"
       width="1"
       y="0"
       x="0"
       color-interpolation-filters="sRGB">
      <feColorMatrix
         id="feColorMatrix9301"
         result="result14"
         type="luminanceToAlpha"
         in="SourceGraphic" />
      <feComposite
         id="feComposite9303"
         in2="result14"
         in="SourceGraphic"
         result="fbSourceGraphic"
         operator="out" />
      <feBlend
         id="feBlend9305"
         in2="fbSourceGraphic"
         mode="normal"
         result="result15" />
    </filter>
    <filter
       id="filter3111"
       inkscape:label="Invert"
       x="0"
       y="0"
       width="1"
       height="1"
       inkscape:menu="Color"
       inkscape:menu-tooltip="Invert colors"
       color-interpolation-filters="sRGB">
      <feColorMatrix
         id="feColorMatrix3113"
         type="saturate"
         values="1"
         result="fbSourceGraphic" />
      <feColorMatrix
         id="feColorMatrix3115"
         in="fbSourceGraphic"
         values="-1 0 0 0 1 0 -1 0 0 1 0 0 -1 0 1 0 0 0 1 0 " />
    </filter>
  </defs>
  <metadata
     id="metadata7">
    <rdf:RDF>
      <cc:Work
         rdf:about="">
        <dc:format>image/svg+xml</dc:format>
        <dc:type
           rdf:resource="http://purl.org/dc/dcmitype/StillImage" />
        <dc:title></dc:title>
      </cc:Work>
    </rdf:RDF>
  </metadata>
  <g
     inkscape:groupmode="layer"
     id="layer8"
     inkscape:label="utilityBase"
     style="display:inline"
     transform="translate(0,6)"
     sodipodi:insensitive="true">
    <rect
       style="fill:#000000;fill-opacity:1;stroke:none"
       id="rect7424"
       width="120"
       height="120"
       x="0"
       y="-6" />
  </g>
  <g
     inkscape:groupmode="layer"
     id="layer11"
     inkscape:label="white base"
     style="display:none"
     transform="translate(0,6)"
     sodipodi:insensitive="true">
    <rect
       style="fill:#ffffff;fill-opacity:1;fill-rule:evenodd;stroke:none"
       id="rect9414"
       width="88.283875"
       height="89.256332"
       x="15.858065"
       y="9.3718367" />
  </g>
  <g
     inkscape:groupmode="layer"
     id="layer10"
     inkscape:label="base highlighted"
     style="display:none"
     transform="translate(0,6)">
    <rect
       style="fill:#5dff04;fill-opacity:1;fill-rule:evenodd;stroke:none"
       id="rect9316"
       width="98"
       height="98"
       x="11"
       y="5"
       ry="13.228971" />
  </g>
  <g
     inkscape:groupmode="layer"
     id="layer19"
     inkscape:label="heart default"
     style="display:inline"
     sodipodi:insensitive="true">
    <g
       style="font-size:40px;font-style:normal;font-variant:normal;font-weight:normal;font-stretch:normal;text-align:start;line-height:125%;letter-spacing:0px;word-spacing:0px;writing-mode:lr-tb;text-anchor:start;fill:#ffffff;fill-opacity:1;stroke:none;display:inline;font-family:Glyphish;-inkscape-font-specification:Glyphish"
       id="text3115-9"
       transform="matrix(3.3222591,0,0,3.3222591,-136.53824,-142.68605)">
      <path
         d="m 59.158011,53.528503 c 0.719975,-1.093311 1.546641,-1.879977 2.48,-2.36 0.933305,-0.506642 1.893304,-0.759975 2.88,-0.76 0.853303,2.5e-5 1.679968,0.173358 2.48,0.52 0.799967,0.34669 1.506633,0.840023 2.12,1.48 0.639965,0.640022 1.146631,1.400021 1.52,2.28 0.373297,0.853353 0.559963,1.800018 0.56,2.84 -3.7e-5,1.120016 -0.226703,2.160015 -0.68,3.12 -0.426702,0.960013 -0.986702,1.866679 -1.68,2.72 -0.693367,0.826677 -1.453366,1.586677 -2.28,2.28 -0.826698,0.693342 -1.613364,1.333341 -2.36,1.92 -0.800029,0.61334 -1.466695,1.120006 -2,1.52 -0.53336,0.400005 -0.986693,0.746672 -1.36,1.04 -0.346693,0.266671 -0.653359,0.520004 -0.92,0.76 -0.266692,0.213337 -0.520025,0.453337 -0.76,0.72 -0.240024,-0.266663 -0.493357,-0.506663 -0.76,-0.72 -0.26669,-0.213329 -0.58669,-0.466662 -0.96,-0.76 -0.346689,-0.293328 -0.786689,-0.639995 -1.32,-1.04 -0.533354,-0.399994 -1.186687,-0.90666 -1.96,-1.52 -0.773352,-0.586659 -1.573351,-1.226658 -2.4,-1.92 -0.826683,-0.71999 -1.586682,-1.493323 -2.28,-2.32 -0.666681,-0.826654 -1.22668,-1.706653 -1.68,-2.64 -0.453346,-0.959985 -0.680012,-1.999984 -0.68,-3.12 -1.2e-5,-1.039982 0.186654,-1.999981 0.56,-2.88 0.37332,-0.879979 0.866653,-1.639978 1.48,-2.28 0.639985,-0.639977 1.359984,-1.13331 2.16,-1.48 0.826649,-0.346642 1.666648,-0.519975 2.52,-0.52 0.95998,2.5e-5 1.906646,0.253358 2.84,0.76 0.93331,0.480023 1.759976,1.266689 2.48,2.36"
         id="path3120-6"
         inkscape:connector-curvature="0"
         style="fill:#ffffff" />
    </g>
  </g>
  <g
     inkscape:groupmode="layer"
     id="layer20"
     inkscape:label="heart highlighted"
     sodipodi:insensitive="true"
     style="display:none">
    <g
       style="font-size:40px;font-style:normal;font-variant:normal;font-weight:normal;font-stretch:normal;text-align:start;line-height:125%;letter-spacing:0px;word-spacing:0px;writing-mode:lr-tb;text-anchor:start;fill:#ff0000;fill-opacity:1;stroke:none;display:inline;font-family:Glyphish;-inkscape-font-specification:Glyphish"
       id="text3115"
       transform="matrix(3.3222591,0,0,3.3222591,-136.53824,-142.68605)">
      <path
         d="m 59.158011,53.528503 c 0.719975,-1.093311 1.546641,-1.879977 2.48,-2.36 0.933305,-0.506642 1.893304,-0.759975 2.88,-0.76 0.853303,2.5e-5 1.679968,0.173358 2.48,0.52 0.799967,0.34669 1.506633,0.840023 2.12,1.48 0.639965,0.640022 1.146631,1.400021 1.52,2.28 0.373297,0.853353 0.559963,1.800018 0.56,2.84 -3.7e-5,1.120016 -0.226703,2.160015 -0.68,3.12 -0.426702,0.960013 -0.986702,1.866679 -1.68,2.72 -0.693367,0.826677 -1.453366,1.586677 -2.28,2.28 -0.826698,0.693342 -1.613364,1.333341 -2.36,1.92 -0.800029,0.61334 -1.466695,1.120006 -2,1.52 -0.53336,0.400005 -0.986693,0.746672 -1.36,1.04 -0.346693,0.266671 -0.653359,0.520004 -0.92,0.76 -0.266692,0.213337 -0.520025,0.453337 -0.76,0.72 -0.240024,-0.266663 -0.493357,-0.506663 -0.76,-0.72 -0.26669,-0.213329 -0.58669,-0.466662 -0.96,-0.76 -0.346689,-0.293328 -0.786689,-0.639995 -1.32,-1.04 -0.533354,-0.399994 -1.186687,-0.90666 -1.96,-1.52 -0.773352,-0.586659 -1.573351,-1.226658 -2.4,-1.92 -0.826683,-0.71999 -1.586682,-1.493323 -2.28,-2.32 -0.666681,-0.826654 -1.22668,-1.706653 -1.68,-2.64 -0.453346,-0.959985 -0.680012,-1.999984 -0.68,-3.12 -1.2e-5,-1.039982 0.186654,-1.999981 0.56,-2.88 0.37332,-0.879979 0.866653,-1.639978 1.48,-2.28 0.639985,-0.639977 1.359984,-1.13331 2.16,-1.48 0.826649,-0.346642 1.666648,-0.519975 2.52,-0.52 0.95998,2.5e-5 1.906646,0.253358 2.84,0.76 0.93331,0.480023 1.759976,1.266689 2.48,2.36"
         id="path3120"
         inkscape:connector-curvature="0" />
    </g>
  </g>
  <g
     inkscape:groupmode="layer"
     id="layer17"
     inkscape:label="plug default"
     style="display:none"
     sodipodi:insensitive="true">
    <g
       style="font-size:40px;font-style:normal;font-variant:normal;font-weight:normal;font-stretch:normal;text-align:start;line-height:125%;letter-spacing:0px;word-spacing:0px;writing-mode:lr-tb;text-anchor:start;fill:#ffffff;fill-opacity:1;stroke:none;font-family:Glyphish;-inkscape-font-specification:Glyphish"
       id="text3085"
       transform="matrix(3.3333333,0,0,3.3333333,-139.35868,-139.46302)">
      <path
         d="m 66.767604,49.798906 c 0.826635,2.4e-5 1.559967,0.293357 2.2,0.88 0.639966,0.560023 1.159966,1.320022 1.56,2.28 0.426631,0.933354 0.746631,2.000019 0.96,3.2 0.213297,1.200017 0.319964,2.426682 0.32,3.68 -3.6e-5,1.253346 -0.106703,2.493345 -0.32,3.72 -0.213369,1.200009 -0.533369,2.266675 -0.96,3.2 -0.400034,0.93334 -0.920034,1.693339 -1.56,2.28 -0.640033,0.560005 -1.373365,0.840004 -2.2,0.84 l -13.88,0 c -0.85335,4e-6 -1.600016,-0.279995 -2.24,-0.84 -0.640014,-0.586661 -1.173347,-1.34666 -1.6,-2.28 -0.400013,-0.933325 -0.706679,-1.999991 -0.92,-3.2 -0.213346,-1.226655 -0.320012,-2.466654 -0.32,-3.72 -1.2e-5,-1.253318 0.106654,-2.479983 0.32,-3.68 0.213321,-1.199981 0.519987,-2.266646 0.92,-3.2 0.426653,-0.959978 0.959986,-1.719977 1.6,-2.28 0.639984,-0.586643 1.38665,-0.879976 2.24,-0.88 l 13.88,0 m -9.96,6 c -2.1e-5,-0.293315 -0.09335,-0.533314 -0.28,-0.72 -0.186687,-0.186647 -0.426687,-0.279981 -0.72,-0.28 -0.293353,1.9e-5 -0.533353,0.09335 -0.72,0.28 -0.186686,0.186686 -0.280019,0.426685 -0.28,0.72 l 0,4.04 c -1.9e-5,0.293347 0.09331,0.533347 0.28,0.72 0.186647,0.18668 0.426647,0.280013 0.72,0.28 0.293313,1.3e-5 0.533313,-0.09332 0.72,-0.28 0.186646,-0.186653 0.279979,-0.426653 0.28,-0.72 l 0,-4.04 m 5.04,10.04 c -2.6e-5,-0.533325 -0.200026,-0.999991 -0.6,-1.4 -0.400025,-0.39999 -0.880025,-0.59999 -1.44,-0.6 -0.533357,10e-6 -1.000023,0.20001 -1.4,0.6 -0.400022,0.400009 -0.600022,0.866675 -0.6,1.4 l 0,1 4.04,0 0,-1 m 3,-10.04 c -2.9e-5,-0.293315 -0.09336,-0.533314 -0.28,-0.72 -0.186695,-0.186647 -0.426695,-0.279981 -0.72,-0.28 -0.293361,1.9e-5 -0.533361,0.09335 -0.72,0.28 -0.186694,0.186686 -0.280027,0.426685 -0.28,0.72 l 0,4.04 c -2.7e-5,0.293347 0.09331,0.533347 0.28,0.72 0.186639,0.18668 0.426639,0.280013 0.72,0.28 0.293305,1.3e-5 0.533305,-0.09332 0.72,-0.28 0.186638,-0.186653 0.279971,-0.426653 0.28,-0.72 l 0,-4.04"
         id="path3090"
         inkscape:connector-curvature="0" />
    </g>
  </g>
  <g
     inkscape:groupmode="layer"
     id="layer18"
     inkscape:label="plug hightlighted"
     style="display:none"
     sodipodi:insensitive="true">
    <g
       style="font-size:40px;font-style:normal;font-variant:normal;font-weight:normal;font-stretch:normal;text-align:start;line-height:125%;letter-spacing:0px;word-spacing:0px;writing-mode:lr-tb;text-anchor:start;fill:#808080;fill-opacity:1;stroke:none;display:inline;font-family:Glyphish;-inkscape-font-specification:Glyphish"
       id="text3085-3"
       transform="matrix(4.5833333,0,0,4.5833333,-214.11818,-214.26165)">
      <path
         d="m 66.767604,49.798906 c 0.826635,2.4e-5 1.559967,0.293357 2.2,0.88 0.639966,0.560023 1.159966,1.320022 1.56,2.28 0.426631,0.933354 0.746631,2.000019 0.96,3.2 0.213297,1.200017 0.319964,2.426682 0.32,3.68 -3.6e-5,1.253346 -0.106703,2.493345 -0.32,3.72 -0.213369,1.200009 -0.533369,2.266675 -0.96,3.2 -0.400034,0.93334 -0.920034,1.693339 -1.56,2.28 -0.640033,0.560005 -1.373365,0.840004 -2.2,0.84 l -13.88,0 c -0.85335,4e-6 -1.600016,-0.279995 -2.24,-0.84 -0.640014,-0.586661 -1.173347,-1.34666 -1.6,-2.28 -0.400013,-0.933325 -0.706679,-1.999991 -0.92,-3.2 -0.213346,-1.226655 -0.320012,-2.466654 -0.32,-3.72 -1.2e-5,-1.253318 0.106654,-2.479983 0.32,-3.68 0.213321,-1.199981 0.519987,-2.266646 0.92,-3.2 0.426653,-0.959978 0.959986,-1.719977 1.6,-2.28 0.639984,-0.586643 1.38665,-0.879976 2.24,-0.88 l 13.88,0 m -9.96,6 c -2.1e-5,-0.293315 -0.09335,-0.533314 -0.28,-0.72 -0.186687,-0.186647 -0.426687,-0.279981 -0.72,-0.28 -0.293353,1.9e-5 -0.533353,0.09335 -0.72,0.28 -0.186686,0.186686 -0.280019,0.426685 -0.28,0.72 l 0,4.04 c -1.9e-5,0.293347 0.09331,0.533347 0.28,0.72 0.186647,0.18668 0.426647,0.280013 0.72,0.28 0.293313,1.3e-5 0.533313,-0.09332 0.72,-0.28 0.186646,-0.186653 0.279979,-0.426653 0.28,-0.72 l 0,-4.04 m 5.04,10.04 c -2.6e-5,-0.533325 -0.200026,-0.999991 -0.6,-1.4 -0.400025,-0.39999 -0.880025,-0.59999 -1.44,-0.6 -0.533357,10e-6 -1.000023,0.20001 -1.4,0.6 -0.400022,0.400009 -0.600022,0.866675 -0.6,1.4 l 0,1 4.04,0 0,-1 m 3,-10.04 c -2.9e-5,-0.293315 -0.09336,-0.533314 -0.28,-0.72 -0.186695,-0.186647 -0.426695,-0.279981 -0.72,-0.28 -0.293361,1.9e-5 -0.533361,0.09335 -0.72,0.28 -0.186694,0.186686 -0.280027,0.426685 -0.28,0.72 l 0,4.04 c -2.7e-5,0.293347 0.09331,0.533347 0.28,0.72 0.186639,0.18668 0.426639,0.280013 0.72,0.28 0.293305,1.3e-5 0.533305,-0.09332 0.72,-0.28 0.186638,-0.186653 0.279971,-0.426653 0.28,-0.72 l 0,-4.04"
         id="path3090-0"
         inkscape:connector-curvature="0"
         style="fill:#808080" />
    </g>
  </g>
  <g
     inkscape:groupmode="layer"
     id="layer1"
     inkscape:label="phone default"
     style="display:none"
     sodipodi:insensitive="true">
    <text
       xml:space="preserve"
       style="font-size:72px;font-style:normal;font-variant:normal;font-weight:normal;font-stretch:normal;text-align:start;line-height:125%;letter-spacing:0px;word-spacing:0px;writing-mode:lr-tb;text-anchor:start;fill:#000000;fill-opacity:1;stroke:none;font-family:Glyphish;-inkscape-font-specification:Glyphish"
       x="54.552147"
       y="45.515339"
       id="text3090"
       sodipodi:linespacing="125%"><tspan
         sodipodi:role="line"
         id="tspan3092"
         x="54.552147"
         y="45.515339" /></text>
    <flowRoot
       xml:space="preserve"
       id="flowRoot3098"
       style="font-size:40px;font-style:normal;font-weight:normal;line-height:125%;letter-spacing:0px;word-spacing:0px;fill:#000000;fill-opacity:1;stroke:none;font-family:Bitstream Vera Sans"><flowRegion
         id="flowRegion3100"><rect
           id="rect3102"
           width="127.98773"
           height="477.681"
           x="58.398773"
           y="-440.20859" /></flowRegion><flowPara
         id="flowPara3104" /></flowRoot>    <text
       xml:space="preserve"
       style="font-size:40px;font-style:normal;font-variant:normal;font-weight:normal;font-stretch:normal;text-align:start;line-height:125%;letter-spacing:0px;word-spacing:0px;writing-mode:lr-tb;text-anchor:start;fill:#000000;fill-opacity:1;stroke:none;font-family:Glyphish;-inkscape-font-specification:Glyphish"
       x="104.90798"
       y="-317.46625"
       id="text3106"
       sodipodi:linespacing="125%"><tspan
         sodipodi:role="line"
         id="tspan3108"
         x="104.90798"
         y="-317.46625" /></text>
    <text
       xml:space="preserve"
       style="font-size:144px;font-style:normal;font-variant:normal;font-weight:normal;font-stretch:normal;text-align:start;line-height:125%;letter-spacing:0px;word-spacing:0px;writing-mode:lr-tb;text-anchor:start;fill:#000000;fill-opacity:1;stroke:none;font-family:Glyphish;-inkscape-font-specification:Glyphish"
       x="54.202454"
       y="58.104294"
       id="text3110"
       sodipodi:linespacing="125%"><tspan
         sodipodi:role="line"
         id="tspan3112"
         x="54.202454"
         y="58.104294" /></text>
    <g
       style="font-size:132.66998291px;font-style:normal;font-variant:normal;font-weight:normal;font-stretch:normal;text-align:start;line-height:125%;letter-spacing:0px;word-spacing:0px;writing-mode:lr-tb;text-anchor:start;fill:#000000;fill-opacity:1;stroke:none;filter:url(#filter3111);font-family:Glyphish;-inkscape-font-specification:Glyphish"
       id="text3271"
       transform="matrix(1.0014538,0,0,1.0014766,-11.936015,3.9423704)">
      <path
         d="m 54.634205,43.717805 c -0.796082,0.796078 -1.194091,1.724767 -1.19403,2.78607 -6.1e-5,1.238308 0.442172,2.520783 1.3267,3.847429 0.884403,1.326751 1.857315,2.697673 2.91874,4.11277 2.211098,2.741891 4.510709,5.306842 6.898839,7.694859 2.476431,2.388097 4.820265,4.466592 7.031509,6.235489 2.476424,2.034305 4.510695,3.58212 6.102819,4.643449 1.680399,1.061388 3.139768,1.592068 4.37811,1.59204 0.972822,2.8e-5 1.813064,-0.353758 2.520729,-1.06136 l 19.369819,19.369818 c -0.61924,0.619135 -1.76905,1.282484 -3.44942,1.990049 -1.68059,0.619134 -3.89176,0.928697 -6.6335,0.92869 -2.211266,7e-6 -4.776216,-0.309556 -7.694859,-0.92869 C 83.379277,94.220853 80.239424,93.026825 76.790092,91.346329 73.429038,89.577409 69.758505,87.233575 65.778484,84.31482 61.798314,81.307655 57.552879,77.504452 53.042165,72.905201 48.796669,68.571349 45.30303,64.502807 42.561237,60.699563 c -2.741895,-3.803161 -4.908835,-7.2968 -6.50083,-10.480929 -1.503635,-3.272471 -2.564994,-6.235431 -3.184079,-8.888889 -0.619167,-2.741782 -0.92873,-5.174063 -0.92869,-7.296849 -4e-5,-2.653328 0.309523,-4.820269 0.92869,-6.500829 0.707532,-1.68041 1.326658,-2.874438 1.85738,-3.582089 L 54.634205,43.717805 M 105.44681,91.478999 86.076991,72.109181 91.51646,66.537042 c 0.53058,-0.61909 1.238153,-0.928653 2.12272,-0.92869 0.884364,3.7e-5 1.63616,0.3096 2.25539,0.92869 l 15.12438,15.124378 c 0.53056,0.619147 0.7959,1.326719 0.79602,2.12272 0.0883,0.796038 -0.17702,1.547833 -0.79602,2.25539 l -5.57214,5.439469 M 56.226245,42.258435 36.325747,22.357938 l 5.43947,-5.43947 c 0.442183,-0.530593 1.061309,-0.840156 1.857379,-0.928689 0.884415,-0.08836 1.680434,0.221202 2.38806,0.928689 l 15.655058,15.522388 c 1.326629,1.503662 1.326629,2.96303 0,4.37811 l -5.439469,5.439469"
         id="path3280"
         inkscape:connector-curvature="0" />
    </g>
    <text
       xml:space="preserve"
       style="font-size:40px;font-style:normal;font-variant:normal;font-weight:normal;font-stretch:normal;text-align:start;line-height:125%;letter-spacing:0px;word-spacing:0px;writing-mode:lr-tb;text-anchor:start;fill:#000000;fill-opacity:1;stroke:none;font-family:Glyphish;-inkscape-font-specification:Glyphish"
       x="77.631905"
       y="5.6503057"
       id="text3275"
       sodipodi:linespacing="125%"><tspan
         sodipodi:role="line"
         id="tspan3277"
         x="77.631905"
         y="5.6503057"> </tspan></text>
  </g>
  <g
     style="display:none"
     inkscape:label="phone highlighted"
     id="g3081"
     inkscape:groupmode="layer"
     sodipodi:insensitive="true">
    <text
       sodipodi:linespacing="125%"
       id="text3083"
       y="45.515339"
       x="54.552147"
       style="font-size:72px;font-style:normal;font-variant:normal;font-weight:normal;font-stretch:normal;text-align:start;line-height:125%;letter-spacing:0px;word-spacing:0px;writing-mode:lr-tb;text-anchor:start;fill:#000000;fill-opacity:1;stroke:none;font-family:Glyphish;-inkscape-font-specification:Glyphish"
       xml:space="preserve"><tspan
         y="45.515339"
         x="54.552147"
         id="tspan3085"
         sodipodi:role="line" /></text>
    <flowRoot
       style="font-size:40px;font-style:normal;font-weight:normal;line-height:125%;letter-spacing:0px;word-spacing:0px;fill:#000000;fill-opacity:1;stroke:none;font-family:Bitstream Vera Sans"
       id="flowRoot3087"
       xml:space="preserve"><flowRegion
         id="flowRegion3089"><rect
           y="-440.20859"
           x="58.398773"
           height="477.681"
           width="127.98773"
           id="rect3091" /></flowRegion><flowPara
         id="flowPara3093" /></flowRoot>    <text
       sodipodi:linespacing="125%"
       id="text3095"
       y="-317.46625"
       x="104.90798"
       style="font-size:40px;font-style:normal;font-variant:normal;font-weight:normal;font-stretch:normal;text-align:start;line-height:125%;letter-spacing:0px;word-spacing:0px;writing-mode:lr-tb;text-anchor:start;fill:#000000;fill-opacity:1;stroke:none;font-family:Glyphish;-inkscape-font-specification:Glyphish"
       xml:space="preserve"><tspan
         y="-317.46625"
         x="104.90798"
         id="tspan3097"
         sodipodi:role="line" /></text>
    <text
       sodipodi:linespacing="125%"
       id="text3099"
       y="58.104294"
       x="54.202454"
       style="font-size:144px;font-style:normal;font-variant:normal;font-weight:normal;font-stretch:normal;text-align:start;line-height:125%;letter-spacing:0px;word-spacing:0px;writing-mode:lr-tb;text-anchor:start;fill:#000000;fill-opacity:1;stroke:none;font-family:Glyphish;-inkscape-font-specification:Glyphish"
       xml:space="preserve"><tspan
         y="58.104294"
         x="54.202454"
         id="tspan3101"
         sodipodi:role="line" /></text>
    <text
       sodipodi:linespacing="125%"
       id="text3107"
       y="5.6503057"
       x="77.631905"
       style="font-size:40px;font-style:normal;font-variant:normal;font-weight:normal;font-stretch:normal;text-align:start;line-height:125%;letter-spacing:0px;word-spacing:0px;writing-mode:lr-tb;text-anchor:start;fill:#000000;fill-opacity:1;stroke:none;font-family:Glyphish;-inkscape-font-specification:Glyphish"
       xml:space="preserve"><tspan
         y="5.6503057"
         x="77.631905"
         id="tspan3109"
         sodipodi:role="line"> </tspan></text>
    <text
       xml:space="preserve"
       style="font-size:40px;font-style:normal;font-variant:normal;font-weight:normal;font-stretch:normal;text-align:start;line-height:125%;letter-spacing:0px;word-spacing:0px;writing-mode:lr-tb;text-anchor:start;fill:#000000;fill-opacity:1;stroke:none;font-family:Glyphish;-inkscape-font-specification:Glyphish"
       x="66.092026"
       y="22.785275"
       id="text28969"
       sodipodi:linespacing="125%"><tspan
         sodipodi:role="line"
         id="tspan28971"
         x="66.092026"
         y="22.785275" /></text>
    <text
       xml:space="preserve"
       style="font-size:40px;font-style:normal;font-variant:normal;font-weight:normal;font-stretch:normal;text-align:start;line-height:125%;letter-spacing:0px;word-spacing:0px;writing-mode:lr-tb;text-anchor:start;fill:#000000;fill-opacity:1;stroke:none;font-family:Glyphish;-inkscape-font-specification:Glyphish"
       x="55.251534"
       y="29.77914"
       id="text28977"
       sodipodi:linespacing="125%"><tspan
         sodipodi:role="line"
         id="tspan28979"
         x="55.251534"
         y="29.77914" /></text>
    <text
       xml:space="preserve"
       style="font-size:40px;font-style:normal;font-variant:normal;font-weight:normal;font-stretch:normal;text-align:start;line-height:125%;letter-spacing:0px;word-spacing:0px;writing-mode:lr-tb;text-anchor:start;fill:#000000;fill-opacity:1;stroke:none;font-family:Glyphish;-inkscape-font-specification:Glyphish"
       x="32.871166"
       y="102.16564"
       id="text28981"
       sodipodi:linespacing="125%"><tspan
         sodipodi:role="line"
         id="tspan28983"
         x="32.871166"
         y="102.16564"> </tspan></text>
    <g
       style="font-size:189.05473328px;font-style:normal;font-variant:normal;font-weight:normal;font-stretch:normal;text-align:start;line-height:125%;letter-spacing:0px;word-spacing:0px;writing-mode:lr-tb;text-anchor:start;fill:#808080;fill-opacity:1;stroke:none;font-family:Glyphish;-inkscape-font-specification:Glyphish"
       id="text28985"
       transform="matrix(1.0365924,0,0,1.0366161,-2.5094247,-1.526422)">
      <path
         d="m 35.713898,41.970593 c -1.134416,1.134411 -1.70158,2.457793 -1.701492,3.970149 -8.8e-5,1.764589 0.630094,3.592117 1.890547,5.482588 1.260274,1.890619 2.646674,3.844183 4.159204,5.860696 3.150816,3.907196 6.427761,7.562251 9.830846,10.965175 3.528915,3.403039 6.868879,6.364894 10.019901,8.885572 3.528905,2.898885 6.427741,5.104522 8.696518,6.616916 2.394569,1.512478 4.474169,2.268697 6.238806,2.268657 1.386272,4e-5 2.583617,-0.504106 3.59204,-1.512438 L 106.04226,112.1099 c -0.88241,0.88227 -2.52089,1.82754 -4.91542,2.83582 -2.394849,0.88227 -5.545758,1.32339 -9.45274,1.32338 -3.151055,1e-5 -6.806109,-0.44111 -10.965175,-1.32338 -4.033298,-1.00828 -8.507589,-2.70977 -13.422886,-5.10448 C 62.496536,107.32053 57.266027,103.98057 51.594496,99.821341 45.922755,95.536131 39.873009,90.116567 33.445242,83.562634 27.395409,77.386895 22.416973,71.589222 18.509918,66.169599 14.602718,60.750095 11.514828,55.771659 9.2462358,51.234275 7.1035549,46.571004 5.5911186,42.348786 4.7089222,38.567608 3.8266095,34.660568 3.3854822,31.194568 3.3855391,28.169598 3.3854822,24.388604 3.8266095,21.300713 4.7089222,18.905916 5.7171549,16.511332 6.5994095,14.809841 7.3556885,13.801438 L 35.713898,41.970593 M 108.12186,110.0303 80.51987,82.428306 88.271114,74.488007 c 0.756077,-0.882203 1.764368,-1.32333 3.024876,-1.323383 1.260219,5.3e-5 2.331528,0.44118 3.213931,1.323383 l 21.552239,21.55224 c 0.75605,0.882284 1.13416,1.890575 1.13433,3.024876 0.12586,1.134357 -0.25224,2.205667 -1.13433,3.213927 l -7.9403,7.75125 M 37.982555,39.890991 9.6243453,11.532781 17.375589,3.7815369 C 18.0057,3.0254407 18.887955,2.5843134 20.022356,2.4581538 21.282646,2.3322407 22.416973,2.773368 23.425341,3.7815369 L 45.733799,25.900941 c 1.890447,2.142718 1.890447,4.222318 0,6.238806 l -7.751244,7.751244"
         id="path28990"
         inkscape:connector-curvature="0"
         style="fill:#808080" />
    </g>
  </g>
  <g
     inkscape:groupmode="layer"
     id="layer2"
     inkscape:label="iPod default"
     style="display:none"
     sodipodi:insensitive="true">
    <g
       style="font-size:113.79801178px;font-style:normal;font-variant:normal;font-weight:normal;font-stretch:normal;text-align:start;line-height:125%;letter-spacing:0px;word-spacing:0px;writing-mode:lr-tb;text-anchor:start;fill:#ffffff;fill-opacity:1;stroke:none;font-family:Glyphish;-inkscape-font-specification:Glyphish"
       id="text3837"
       transform="translate(-0.1617635,-1.701979)">
      <path
         d="m 60.218662,72.114498 c 1.820698,2.9e-5 3.375936,0.682817 4.665719,2.048364 1.289636,1.289737 1.934491,2.844975 1.934566,4.665718 -7.5e-5,1.820789 -0.64493,3.41396 -1.934566,4.779517 -1.289783,1.289727 -2.845021,1.934582 -4.665719,1.934566 -1.8967,1.6e-5 -3.489871,-0.644839 -4.779516,-1.934566 -1.289774,-1.365557 -1.934628,-2.958728 -1.934566,-4.779517 -6.2e-5,-1.820743 0.644792,-3.375981 1.934566,-4.665718 1.289645,-1.365547 2.882816,-2.048335 4.779516,-2.048364 M 77.51596,21.701978 c 1.517219,8e-5 2.806929,0.56907 3.869132,1.70697 1.062024,1.062192 1.593081,2.351902 1.593173,3.869133 l 0,68.847797 c -9.2e-5,1.517311 -0.531149,2.844953 -1.593173,3.982932 -1.062203,1.06211 -2.351913,1.59317 -3.869132,1.59317 l -34.708394,0 c -1.517356,0 -2.807066,-0.53106 -3.869132,-1.59317 -1.062161,-1.137979 -1.593218,-2.465621 -1.593172,-3.982932 l 0,-68.847797 c -4.6e-5,-1.517231 0.531011,-2.806941 1.593172,-3.869133 1.062066,-1.1379 2.351776,-1.70689 3.869132,-1.70697 l 34.708394,0 M 60.218662,96.01208 c 2.351755,6e-6 4.551848,-0.455186 6.600285,-1.365576 2.124152,-0.910376 3.944919,-2.124221 5.462305,-3.641537 1.517224,-1.593159 2.731068,-3.413926 3.641536,-5.462304 0.910299,-2.124211 1.36549,-4.362237 1.365576,-6.714083 -8.6e-5,-2.3518 -0.455277,-4.551893 -1.365576,-6.600284 -0.910468,-2.124198 -2.124312,-3.944965 -3.641536,-5.462305 -1.517386,-1.593136 -3.338153,-2.844913 -5.462305,-3.755334 -2.048437,-0.910345 -4.24853,-1.365536 -6.600285,-1.365577 -2.427757,4.1e-5 -4.703715,0.455232 -6.82788,1.365577 -2.048424,0.910421 -3.831258,2.162198 -5.348507,3.755334 -1.517362,1.51734 -2.731206,3.338107 -3.641536,5.462305 -0.910436,2.048391 -1.365628,4.248484 -1.365577,6.600284 -5.1e-5,2.351846 0.455141,4.589872 1.365577,6.714083 0.91033,2.048378 2.124174,3.869145 3.641536,5.462304 1.517249,1.517316 3.300083,2.731161 5.348507,3.641537 2.124165,0.91039 4.400123,1.365582 6.82788,1.365576 M 77.288364,31.488607 c -8.6e-5,-1.137908 -0.417345,-2.086224 -1.251778,-2.84495 -0.758737,-0.834445 -1.66912,-1.251704 -2.731152,-1.251778 l -26.287341,0 c -1.062169,7.4e-5 -2.010485,0.417333 -2.84495,1.251778 -0.758706,0.758726 -1.138032,1.707042 -1.137981,2.84495 l 0,20.483642 c -5.1e-5,1.062164 0.379275,2.01048 1.137981,2.844951 0.834465,0.758699 1.782781,1.138026 2.84495,1.13798 l 26.287341,0 c 1.062032,4.6e-5 1.972415,-0.379281 2.731152,-1.13798 0.834433,-0.834471 1.251692,-1.782787 1.251778,-2.844951 l 0,-20.483642"
         id="path3842"
         inkscape:connector-curvature="0" />
    </g>
  </g>
  <g
     inkscape:groupmode="layer"
     id="layer3"
     inkscape:label="iPod highlighted"
     style="display:none"
     sodipodi:insensitive="true">
    <g
       style="font-size:167.85206604px;font-style:normal;font-variant:normal;font-weight:normal;font-stretch:normal;text-align:start;line-height:125%;letter-spacing:0px;word-spacing:0px;writing-mode:lr-tb;text-anchor:start;fill:#808080;fill-opacity:1;stroke:none;font-family:Glyphish;-inkscape-font-specification:Glyphish"
       id="text3844"
       transform="translate(1.523328,2.147241)">
      <path
         d="m 58.560598,73.211223 c 2.685529,4.4e-5 4.979505,1.007155 6.881935,3.021337 1.902213,1.902362 2.853374,4.196338 2.853485,6.881935 -1.11e-4,2.685664 -0.951272,5.035591 -2.853485,7.049787 -1.90243,1.902348 -4.196406,2.853509 -6.881935,2.853485 -2.797633,2.4e-5 -5.147559,-0.951137 -7.049787,-2.853485 -1.902415,-2.014196 -2.853576,-4.364123 -2.853485,-7.049787 -9.1e-5,-2.685597 0.95107,-4.979573 2.853485,-6.881935 1.902228,-2.014182 4.252154,-3.021293 7.049787,-3.021337 M 84.074112,-1.1472421 c 2.237899,1.18e-4 4.14022,0.83937748 5.70697,2.517781 1.566486,1.5667332 2.349795,3.4690547 2.349929,5.7069702 l 0,101.5505009 c -1.34e-4,2.23803 -0.783443,4.1963 -2.349929,5.87482 -1.56675,1.56662 -3.469071,2.34993 -5.70697,2.34993 l -51.19488,0 c -2.238101,0 -4.140422,-0.78331 -5.70697,-2.34993 -1.566688,-1.67852 -2.349997,-3.63679 -2.349929,-5.87482 l 0,-101.5505009 c -6.8e-5,-2.2379155 0.783241,-4.140237 2.349929,-5.7069702 1.566548,-1.67840352 3.468869,-2.517663 5.70697,-2.517781 l 51.19488,0 M 58.560598,108.46016 c 3.468838,1e-5 6.713975,-0.6714 9.73542,-2.01423 3.133124,-1.3428 5.818755,-3.13322 8.056899,-5.37126 2.237906,-2.349915 4.028327,-5.035545 5.371266,-8.056903 1.342691,-3.133212 2.014099,-6.434299 2.014225,-9.903272 -1.26e-4,-3.468905 -0.671534,-6.714042 -2.014225,-9.73542 -1.342939,-3.133192 -3.13336,-5.818822 -5.371266,-8.056899 -2.238144,-2.349875 -4.923775,-4.196246 -8.056899,-5.539118 -3.021445,-1.342758 -6.266582,-2.014166 -9.73542,-2.014225 -3.580942,5.9e-5 -6.93798,0.671467 -10.071124,2.014225 -3.021425,1.342872 -5.651105,3.189243 -7.889047,5.539118 -2.238109,2.238077 -4.028529,4.923707 -5.371266,8.056899 -1.342893,3.021378 -2.014301,6.266515 -2.014225,9.73542 -7.6e-5,3.468973 0.671332,6.77006 2.014225,9.903272 1.342737,3.021358 3.133157,5.706988 5.371266,8.056903 2.237942,2.23804 4.867622,4.02846 7.889047,5.37126 3.133144,1.34283 6.490182,2.01424 10.071124,2.01423 M 83.738408,13.288036 C 83.738282,11.60962 83.122825,10.210854 81.892035,9.0917339 80.772898,7.8609278 79.430083,7.2454708 77.863586,7.2453612 l -38.773828,0 c -1.566699,1.096e-4 -2.965465,0.6155666 -4.196301,1.8463727 -1.11909,1.1191201 -1.678597,2.5178861 -1.678521,4.1963021 l 0,30.213371 c -7.6e-5,1.566692 0.559431,2.965457 1.678521,4.196302 1.230836,1.119082 2.629602,1.678588 4.196301,1.678521 l 38.773828,0 c 1.566497,6.7e-5 2.909312,-0.559439 4.028449,-1.678521 1.23079,-1.230845 1.846247,-2.62961 1.846373,-4.196302 l 0,-30.213371"
         id="path3849"
         inkscape:connector-curvature="0"
         style="fill:#808080" />
    </g>
  </g>
  <g
     inkscape:groupmode="layer"
     id="layer4"
     inkscape:label="timer default"
     style="display:none"
     sodipodi:insensitive="true">
    <g
       style="font-size:40px;font-style:normal;font-variant:normal;font-weight:normal;font-stretch:normal;text-align:start;line-height:125%;letter-spacing:0px;word-spacing:0px;writing-mode:lr-tb;text-anchor:start;fill:#ffffff;fill-opacity:1;stroke:none;font-family:Glyphish;-inkscape-font-specification:Glyphish"
       id="text3859"
       transform="matrix(3.0627871,0,0,3.0627871,-123.21105,-116.79121)">
      <path
         d="m 60.81841,57.982332 c 0.293308,0.186681 0.533308,0.42668 0.72,0.72 0.186641,0.293347 0.279974,0.62668 0.28,1 -2.6e-5,0.373345 -0.09336,0.720012 -0.28,1.04 -0.186692,0.293344 -0.426692,0.533344 -0.72,0.72 l 0,1.28 -2,0 0,-1.28 c -0.293356,-0.186656 -0.533356,-0.426656 -0.72,-0.72 -0.186689,-0.319988 -0.280022,-0.666655 -0.28,-1.04 -2.2e-5,-0.37332 0.09331,-0.706653 0.28,-1 0.186644,-0.29332 0.426644,-0.533319 0.72,-0.72 l 0,-4.28 2,0 0,4.28 m 7.8,-4.92 c 0.6933,0.933352 1.239966,1.960017 1.64,3.08 0.399965,1.120015 0.599965,2.30668 0.6,3.56 -3.5e-5,1.520011 -0.293368,2.96001 -0.88,4.32 -0.5867,1.33334 -1.3867,2.506672 -2.4,3.52 -0.986698,0.98667 -2.146696,1.773336 -3.48,2.36 -1.33336,0.586668 -2.760026,0.880001 -4.28,0.88 -1.520023,10e-7 -2.960021,-0.293332 -4.32,-0.88 -1.333352,-0.586664 -2.506684,-1.37333 -3.52,-2.36 -0.986682,-1.013328 -1.773348,-2.18666 -2.36,-3.52 -0.560013,-1.35999 -0.840013,-2.799989 -0.84,-4.32 -1.3e-5,-1.439986 0.25332,-2.799985 0.76,-4.08 0.533319,-1.279982 1.239985,-2.399981 2.12,-3.36 0.90665,-0.986646 1.973315,-1.786645 3.2,-2.4 1.226646,-0.61331 2.546645,-0.986643 3.96,-1.12 l 0,-2.08 -1,0 0,-2 4,0 0,2 -1,0 0,2.08 c 1.066641,0.08002 2.06664,0.320023 3,0.72 0.959971,0.373356 1.83997,0.866689 2.64,1.48 l 2.2,-2.2 2.16,2.12 -2.2,2.2 m -8.8,15.68 c 1.226641,3e-6 2.38664,-0.226663 3.48,-0.68 1.119971,-0.479995 2.07997,-1.133328 2.88,-1.96 0.826635,-0.82666 1.479968,-1.786659 1.96,-2.88 0.479967,-1.093323 0.719967,-2.266655 0.72,-3.52 -3.3e-5,-1.226653 -0.240033,-2.386652 -0.72,-3.48 -0.480032,-1.093316 -1.133365,-2.053315 -1.96,-2.88 -0.80003,-0.826647 -1.760029,-1.466646 -2.88,-1.92 -1.09336,-0.479979 -2.253359,-0.719979 -3.48,-0.72 -1.253356,2.1e-5 -2.426688,0.240021 -3.52,0.72 -1.093353,0.453354 -2.053352,1.093353 -2.88,1.92 -0.826684,0.826685 -1.480016,1.786684 -1.96,2.88 -0.453349,1.093348 -0.680015,2.253347 -0.68,3.48 -1.5e-5,1.253345 0.226651,2.426677 0.68,3.52 0.479984,1.093341 1.133316,2.05334 1.96,2.88 0.826648,0.826672 1.786647,1.480005 2.88,1.96 1.093312,0.453337 2.266644,0.680003 3.52,0.68"
         id="path3876"
         inkscape:connector-curvature="0" />
    </g>
    <text
       xml:space="preserve"
       style="font-size:40px;font-style:normal;font-variant:normal;font-weight:normal;font-stretch:normal;text-align:start;line-height:125%;letter-spacing:0px;word-spacing:0px;writing-mode:lr-tb;text-anchor:start;fill:#000000;fill-opacity:1;stroke:none;font-family:Glyphish;-inkscape-font-specification:Glyphish"
       x="140.92638"
       y="52.509201"
       id="text3863"
       sodipodi:linespacing="125%"><tspan
         sodipodi:role="line"
         id="tspan3865"
         x="140.92638"
         y="52.509201"> </tspan></text>
    <text
       xml:space="preserve"
       style="font-size:40px;font-style:normal;font-variant:normal;font-weight:normal;font-stretch:normal;text-align:start;line-height:125%;letter-spacing:0px;word-spacing:0px;writing-mode:lr-tb;text-anchor:start;fill:#000000;fill-opacity:1;stroke:none;font-family:Glyphish;-inkscape-font-specification:Glyphish"
       x="216.80981"
       y="84.680984"
       id="text3867"
       sodipodi:linespacing="125%"><tspan
         sodipodi:role="line"
         id="tspan3869"
         x="216.80981"
         y="84.680984"> </tspan></text>
  </g>
  <g
     inkscape:groupmode="layer"
     id="layer5"
     inkscape:label="timer highlighted"
     style="display:none"
     sodipodi:insensitive="true">
    <g
       style="font-size:40px;font-style:normal;font-variant:normal;font-weight:normal;font-stretch:normal;text-align:start;line-height:125%;letter-spacing:0px;word-spacing:0px;writing-mode:lr-tb;text-anchor:start;fill:#808080;fill-opacity:1;stroke:none;font-family:Glyphish;-inkscape-font-specification:Glyphish"
       id="text3878"
       transform="matrix(4.517611,0,0,4.517611,-289.92372,-138.39139)">
      <path
         d="m 78.457692,44.175112 c 0.293308,0.18668 0.533308,0.42668 0.72,0.72 0.186641,0.293346 0.279974,0.626679 0.28,1 -2.6e-5,0.373345 -0.09336,0.720011 -0.28,1.04 -0.186692,0.293344 -0.426692,0.533344 -0.72,0.72 l 0,1.28 -2,0 0,-1.28 c -0.293356,-0.186656 -0.533356,-0.426656 -0.72,-0.72 -0.186689,-0.319989 -0.280022,-0.666655 -0.28,-1.04 -2.2e-5,-0.373321 0.09331,-0.706654 0.28,-1 0.186644,-0.29332 0.426644,-0.53332 0.72,-0.72 l 0,-4.28 2,0 0,4.28 m 7.8,-4.92 c 0.6933,0.933351 1.239966,1.960017 1.64,3.08 0.399965,1.120014 0.599965,2.30668 0.6,3.56 -3.5e-5,1.520011 -0.293368,2.960009 -0.88,4.32 -0.5867,1.33334 -1.386699,2.506672 -2.4,3.52 -0.986697,0.98667 -2.146696,1.773336 -3.48,2.36 -1.33336,0.586668 -2.760025,0.880001 -4.28,0.88 -1.520022,10e-7 -2.960021,-0.293332 -4.32,-0.88 -1.333352,-0.586664 -2.506684,-1.37333 -3.52,-2.36 -0.986682,-1.013328 -1.773348,-2.18666 -2.36,-3.52 -0.560013,-1.359991 -0.840013,-2.799989 -0.84,-4.32 -1.3e-5,-1.439987 0.25332,-2.799985 0.76,-4.08 0.533319,-1.279983 1.239985,-2.399981 2.12,-3.36 0.90665,-0.986646 1.973316,-1.786645 3.2,-2.4 1.226647,-0.613311 2.546645,-0.986644 3.96,-1.12 l 0,-2.08 -1,0 0,-2 4,0 0,2 -1,0 0,2.08 c 1.066641,0.08002 2.06664,0.320023 3,0.72 0.959971,0.373355 1.83997,0.866688 2.64,1.48 l 2.2,-2.2 2.16,2.12 -2.2,2.2 m -8.8,15.68 c 1.226642,3e-6 2.38664,-0.226663 3.48,-0.68 1.119972,-0.479996 2.079971,-1.133329 2.88,-1.96 0.826636,-0.82666 1.479968,-1.786659 1.96,-2.88 0.479967,-1.093324 0.719967,-2.266656 0.72,-3.52 -3.3e-5,-1.226653 -0.240033,-2.386652 -0.72,-3.48 -0.480032,-1.093317 -1.133364,-2.053316 -1.96,-2.88 -0.800029,-0.826647 -1.760028,-1.466647 -2.88,-1.92 -1.09336,-0.479979 -2.253358,-0.719979 -3.48,-0.72 -1.253356,2.1e-5 -2.426688,0.240021 -3.52,0.72 -1.093353,0.453353 -2.053352,1.093353 -2.88,1.92 -0.826683,0.826684 -1.480016,1.786683 -1.96,2.88 -0.453348,1.093348 -0.680015,2.253347 -0.68,3.48 -1.5e-5,1.253344 0.226652,2.426676 0.68,3.52 0.479984,1.093341 1.133317,2.05334 1.96,2.88 0.826648,0.826671 1.786647,1.480004 2.88,1.96 1.093312,0.453337 2.266644,0.680003 3.52,0.68"
         id="path3883"
         inkscape:connector-curvature="0"
         style="fill:#808080" />
    </g>
  </g>
  <g
     inkscape:groupmode="layer"
     id="layer6"
     inkscape:label="loop default"
     style="display:none"
     sodipodi:insensitive="true">
    <g
       style="font-size:40px;font-style:normal;font-variant:normal;font-weight:normal;font-stretch:normal;text-align:start;line-height:125%;letter-spacing:0px;word-spacing:0px;writing-mode:lr-tb;text-anchor:start;fill:#ffffff;fill-opacity:1;stroke:none;font-family:Glyphish;-inkscape-font-specification:Glyphish"
       id="text3885"
       transform="matrix(2.6310574,1.7888203,-1.7747332,2.6519416,-94.376464,-180.88045)">
      <path
         d="m 72.795831,35.226102 c -1.4e-5,1.333346 0.253319,2.573345 0.76,3.72 0.506651,1.146676 1.199984,2.160008 2.08,3.04 0.879982,0.85334 1.893314,1.533339 3.04,2.04 1.173312,0.480005 2.426644,0.720004 3.76,0.72 1.973307,4e-6 3.799972,-0.573328 5.48,-1.72 0.266637,-0.18666 0.55997,-0.279994 0.88,-0.28 0.453303,6e-6 0.826636,0.213339 1.12,0.64 0.186635,0.266672 0.279968,0.560005 0.28,0.88 -3.2e-5,0.533338 -0.213365,0.946671 -0.64,1.24 -2.213362,1.520002 -4.61336,2.280001 -7.2,2.28 -2.133355,10e-7 -4.106686,-0.493332 -5.92,-1.48 -1.786683,-0.986663 -3.253348,-2.306662 -4.4,-3.96 -0.693346,-1.013326 -1.240012,-2.119991 -1.64,-3.32 -0.400011,-1.199989 -0.600011,-2.466654 -0.6,-3.8 l -2.52,0 4.04,-6.04 4,6.04 -2.52,0 m 19.28,0 c -3.4e-5,-1.306652 -0.253367,-2.533317 -0.76,-3.68 -0.506699,-1.173315 -1.200032,-2.186647 -2.08,-3.04 -0.88003,-0.879979 -1.906695,-1.559978 -3.08,-2.04 -1.17336,-0.506644 -2.413359,-0.759977 -3.72,-0.76 -1.973355,2.3e-5 -3.80002,0.573356 -5.48,1.72 -0.266685,0.186688 -0.560018,0.280021 -0.88,0.28 -0.45335,2.1e-5 -0.826683,-0.213312 -1.12,-0.64 -0.186683,-0.266644 -0.280016,-0.559977 -0.28,-0.88 -1.6e-5,-0.53331 0.213317,-0.946643 0.64,-1.24 2.213314,-1.519974 4.613312,-2.279974 7.2,-2.28 2.133307,2.6e-5 4.093305,0.493359 5.88,1.48 1.813302,0.986691 3.2933,2.306689 4.44,3.96 0.693298,1.013353 1.239964,2.120019 1.64,3.32 0.399964,1.200016 0.599963,2.466682 0.6,3.8 l 2.52,0 -4.04,6.04 -4,-6.04 2.52,0"
         id="path3890"
         inkscape:connector-curvature="0" />
    </g>
  </g>
  <g
     inkscape:groupmode="layer"
     id="layer7"
     inkscape:label="loop highlighted"
     style="display:none"
     sodipodi:insensitive="true">
    <g
       style="font-size:40px;font-style:normal;font-variant:normal;font-weight:normal;font-stretch:normal;text-align:start;line-height:125%;letter-spacing:0px;word-spacing:0px;writing-mode:lr-tb;text-anchor:start;fill:#808080;fill-opacity:1;stroke:none;font-family:Glyphish;-inkscape-font-specification:Glyphish"
       id="text3892"
       transform="matrix(3.8788898,2.6413712,-2.620575,3.9096717,-169.39082,-292.56589)">
      <path
         d="m 72.795831,34.484292 c -1.4e-5,1.333346 0.253319,2.573345 0.76,3.72 0.506651,1.146676 1.199984,2.160008 2.08,3.04 0.879982,0.85334 1.893314,1.533339 3.04,2.04 1.173312,0.480005 2.426644,0.720004 3.76,0.72 1.973307,4e-6 3.799972,-0.573328 5.48,-1.72 0.266637,-0.18666 0.55997,-0.279994 0.88,-0.28 0.453303,6e-6 0.826636,0.21334 1.12,0.64 0.186635,0.266672 0.279968,0.560005 0.28,0.88 -3.2e-5,0.533338 -0.213365,0.946671 -0.64,1.24 -2.213362,1.520002 -4.61336,2.280001 -7.2,2.28 -2.133355,1e-6 -4.106686,-0.493331 -5.92,-1.48 -1.786683,-0.986663 -3.253348,-2.306661 -4.4,-3.96 -0.693346,-1.013325 -1.240012,-2.119991 -1.64,-3.32 -0.400011,-1.199989 -0.600011,-2.466654 -0.6,-3.8 l -2.52,0 4.04,-6.04 4,6.04 -2.52,0 m 19.28,0 c -3.4e-5,-1.306651 -0.253367,-2.533317 -0.76,-3.68 -0.506699,-1.173314 -1.200032,-2.186647 -2.08,-3.04 -0.88003,-0.879978 -1.906695,-1.559978 -3.08,-2.04 -1.17336,-0.506643 -2.413359,-0.759976 -3.72,-0.76 -1.973355,2.4e-5 -3.80002,0.573356 -5.48,1.72 -0.266685,0.186688 -0.560018,0.280022 -0.88,0.28 -0.45335,2.2e-5 -0.826683,-0.213312 -1.12,-0.64 -0.186683,-0.266644 -0.280016,-0.559977 -0.28,-0.88 -1.6e-5,-0.53331 0.213317,-0.946643 0.64,-1.24 2.213314,-1.519974 4.613312,-2.279973 7.2,-2.28 2.133307,2.7e-5 4.093305,0.493359 5.88,1.48 1.813302,0.986691 3.2933,2.306689 4.44,3.96 0.693298,1.013353 1.239964,2.120019 1.64,3.32 0.399964,1.200017 0.599963,2.466682 0.6,3.8 l 2.52,0 -4.04,6.04 -4,-6.04 2.52,0"
         id="path3897"
         inkscape:connector-curvature="0"
         style="fill:#808080" />
    </g>
  </g>
  <g
     inkscape:groupmode="layer"
     id="layer9"
     inkscape:label="play default"
     style="display:none"
     sodipodi:insensitive="true">
    <text
       xml:space="preserve"
       style="font-size:40px;font-style:normal;font-variant:normal;font-weight:normal;font-stretch:normal;text-align:start;line-height:125%;letter-spacing:0px;word-spacing:0px;writing-mode:lr-tb;text-anchor:start;fill:#000000;fill-opacity:1;stroke:none;font-family:Glyphish;-inkscape-font-specification:Glyphish"
       x="57.366749"
       y="46.3134"
       id="text3903"
       sodipodi:linespacing="125%"><tspan
         sodipodi:role="line"
         id="tspan3905"
         x="57.366749"
         y="46.3134" /></text>
    <path
       inkscape:connector-curvature="0"
       id="play"
       d="M 99.154102,61.446061 22.109347,99.596614 c -1.088372,0.794256 -2.109345,0.37822 -2.109345,-0.919547 v -77.35303 c 0,-1.302494 1.010988,-1.713808 2.09936,-0.919547 l 77.11466,38.150554 c 1.085868,0.796625 1.028448,2.096755 -0.0599,2.891017 z"
       style="fill:#ffffff;fill-opacity:1" />
  </g>
  <g
     inkscape:groupmode="layer"
     id="layer12"
     inkscape:label="play highlighted"
     style="display:none">
    <path
       inkscape:connector-curvature="0"
       id="play-4"
       d="M 112.84021,61.988332 16.534243,114.44534 c -1.360465,1.09211 -2.636681,0.52006 -2.636681,-1.26437 V 6.8205504 c 0,-1.7909298 1.263735,-2.3564873 2.6242,-1.2643775 L 112.91507,58.013184 c 1.35735,1.09536 1.28559,2.88304 -0.0749,3.975148 z"
       style="fill:#808080" />
  </g>
  <g
     inkscape:groupmode="layer"
     id="layer13"
     inkscape:label="stop default"
     style="display:none"
     sodipodi:insensitive="true">
    <g
       transform="matrix(2.8571429,0,0,2.8571429,-1722.8572,-5014.2858)"
       id="stop_1_"
       style="fill:#ffffff">
      <path
         style="fill:#ffffff;fill-rule:evenodd"
         inkscape:connector-curvature="0"
         id="stop"
         clip-rule="evenodd"
         d="m 638,1789 c 0,0.55 -0.45,1 -1,1 h -26 c -0.55,0 -1,-0.45 -1,-1 v -26 c 0,-0.55 0.45,-1 1,-1 h 26 c 0.55,0 1,0.45 1,1 v 26 z" />
    </g>
  </g>
  <g
     inkscape:groupmode="layer"
     id="layer14"
     inkscape:label="stop highlighted"
     style="display:none"
     sodipodi:insensitive="true">
    <g
       transform="matrix(3.9285714,0,0,3.9285714,-2391.4286,-6917.1428)"
       id="stop_1_-8"
       style="fill:#808080">
      <path
         style="fill:#808080;fill-rule:evenodd"
         inkscape:connector-curvature="0"
         id="stop-8"
         clip-rule="evenodd"
         d="m 638.25456,1789.3454 c 0,0.5 -0.4091,0.9091 -0.9091,0.9091 H 613.7091 c -0.5,0 -0.90909,-0.4091 -0.90909,-0.9091 v -23.6364 c 0,-0.5 0.40909,-0.909 0.90909,-0.909 h 23.63636 c 0.5,0 0.9091,0.409 0.9091,0.909 v 23.6364 z" />
    </g>
  </g>
  <g
     inkscape:groupmode="layer"
     id="layer15"
     inkscape:label="pause default"
     style="display:none"
     sodipodi:insensitive="true">
    <g
       transform="matrix(2.5,0,0,2.5,-1258.75,-4380)"
       id="pause_1_"
       style="fill:#ffffff">
      <path
         style="fill:#ffffff;fill-rule:evenodd"
         inkscape:connector-curvature="0"
         id="pause"
         clip-rule="evenodd"
         d="m 525,1791 c 0,0.55 -0.45,1 -1,1 h -6 c -0.55,0 -1,-0.45 -1,-1 v -30 c 0,-0.55 0.45,-1 1,-1 h 6 c 0.55,0 1,0.45 1,1 v 30 z m 13,-30 c 0,-0.55 -0.45,-1 -1,-1 h -6 c -0.55,0 -1,0.45 -1,1 v 30 c 0,0.55 0.45,1 1,1 h 6 c 0.55,0 1,-0.45 1,-1 v -30 z" />
    </g>
  </g>
  <g
     inkscape:groupmode="layer"
     id="layer16"
     inkscape:label="pause hightlighted"
     style="display:none"
     sodipodi:insensitive="true">
    <g
       transform="matrix(3.6875,0,0,3.6875,-1885.1563,-6489)"
       id="pause_1_-6"
       style="fill:#808080">
      <path
         style="fill:#808080;fill-rule:evenodd"
         inkscape:connector-curvature="0"
         id="pause-2"
         clip-rule="evenodd"
         d="m 525,1791 c 0,0.55 -0.45,1 -1,1 h -6 c -0.55,0 -1,-0.45 -1,-1 v -30 c 0,-0.55 0.45,-1 1,-1 h 6 c 0.55,0 1,0.45 1,1 v 30 z m 13,-30 c 0,-0.55 -0.45,-1 -1,-1 h -6 c -0.55,0 -1,0.45 -1,1 v 30 c 0,0.55 0.45,1 1,1 h 6 c 0.55,0 1,-0.45 1,-1 v -30 z" />
    </g>
  </g>
</svg>
