<?xml version="1.0" encoding="UTF-8" standalone="no"?>
<!-- Created with Inkscape (http://www.inkscape.org/) -->

<svg
   xmlns:dc="http://purl.org/dc/elements/1.1/"
   xmlns:cc="http://creativecommons.org/ns#"
   xmlns:rdf="http://www.w3.org/1999/02/22-rdf-syntax-ns#"
   xmlns:svg="http://www.w3.org/2000/svg"
   xmlns="http://www.w3.org/2000/svg"
   xmlns:sodipodi="http://sodipodi.sourceforge.net/DTD/sodipodi-0.dtd"
   xmlns:inkscape="http://www.inkscape.org/namespaces/inkscape"
   version="1.1"
   width="120"
   height="120"
   id="svg2"
   inkscape:version="0.48.1 r9760"
   sodipodi:docname="PropPhoneButtons.svg"
   style="display:inline"
   inkscape:export-filename="/Users/main_brain/Documents/Xcoding/PropPhone/Phone Graphics/png/iPodButtDefault.png"
   inkscape:export-xdpi="94.739998"
   inkscape:export-ydpi="94.739998">
  <sodipodi:namedview
     pagecolor="#ffffff"
     bordercolor="#666666"
     borderopacity="1"
     objecttolerance="10"
     gridtolerance="10"
     guidetolerance="10"
     inkscape:pageopacity="0"
     inkscape:pageshadow="2"
     inkscape:window-width="1435"
     inkscape:window-height="856"
     id="namedview3000"
     showgrid="false"
     inkscape:document-units="px"
     showguides="true"
     inkscape:guide-bbox="true"
     inkscape:snap-grids="false"
     inkscape:snap-object-midpoints="true"
     inkscape:snap-to-guides="true"
     inkscape:zoom="2.8596491"
     inkscape:cx="37.909328"
     inkscape:cy="44.123257"
     inkscape:window-x="1284"
     inkscape:window-y="22"
     inkscape:window-maximized="0"
     inkscape:current-layer="layer14">
    <sodipodi:guide
       orientation="0,1"
       position="60.000001,59.999999"
       id="guide7434" />
  </sodipodi:namedview>
  <defs
     id="defs4">
    <filter
       id="filter7387"
       inkscape:menu-tooltip="Make the lightest parts of the object progressively transparent"
       inkscape:menu="Transparency utilities"
       inkscape:label="Light eraser"
       height="1"
       width="1"
       y="0"
       x="0"
       color-interpolation-filters="sRGB">
      <feColorMatrix
         id="feColorMatrix7389"
         result="result14"
         type="luminanceToAlpha"
         in="SourceGraphic" />
      <feComposite
         id="feComposite7391"
         in2="result14"
         in="SourceGraphic"
         result="fbSourceGraphic"
         operator="out" />
      <feBlend
         id="feBlend7393"
         in2="fbSourceGraphic"
         mode="normal"
         result="result15" />
    </filter>
    <filter
       id="filter9299"
       inkscape:menu-tooltip="Make the lightest parts of the object progressively transparent"
       inkscape:menu="Transparency utilities"
       inkscape:label="Light eraser"
       height="1"
       width="1"
       y="0"
       x="0"
       color-interpolation-filters="sRGB">
      <feColorMatrix
         id="feColorMatrix9301"
         result="result14"
         type="luminanceToAlpha"
         in="SourceGraphic" />
      <feComposite
         id="feComposite9303"
         in2="result14"
         in="SourceGraphic"
         result="fbSourceGraphic"
         operator="out" />
      <feBlend
         id="feBlend9305"
         in2="fbSourceGraphic"
         mode="normal"
         result="result15" />
    </filter>
  </defs>
  <metadata
     id="metadata7">
    <rdf:RDF>
      <cc:Work
         rdf:about="">
        <dc:format>image/svg+xml</dc:format>
        <dc:type
           rdf:resource="http://purl.org/dc/dcmitype/StillImage" />
        <dc:title></dc:title>
      </cc:Work>
    </rdf:RDF>
  </metadata>
  <g
     inkscape:groupmode="layer"
     id="layer8"
     inkscape:label="utilityBass"
     style="display:inline"
     transform="translate(0,6)">
    <rect
       style="fill:#000000;fill-opacity:1;stroke:none"
       id="rect7424"
       width="120"
       height="120"
       x="0"
       y="-6" />
  </g>
  <g
     inkscape:groupmode="layer"
     id="layer11"
     inkscape:label="Base Sub Layer"
     style="display:inline"
     transform="translate(0,6)"
     sodipodi:insensitive="true">
    <rect
       style="fill:#ffffff;fill-opacity:1;fill-rule:evenodd;stroke:none"
       id="rect9414"
       width="88.283875"
       height="89.256332"
       x="15.858065"
       y="9.3718367" />
  </g>
  <g
     inkscape:groupmode="layer"
     id="layer6"
     inkscape:label="Base Layer"
     style="display:none"
     transform="translate(0,6)"
     sodipodi:insensitive="true">
    <rect
       style="fill:none;stroke:#787878;stroke-width:13.25599957;stroke-linecap:round;stroke-linejoin:round;stroke-miterlimit:4;stroke-opacity:1;stroke-dasharray:none;stroke-dashoffset:0"
       id="rect9410"
       width="100.74419"
       height="100.74419"
       x="9.6279068"
       y="3.627908" />
  </g>
  <g
     inkscape:groupmode="layer"
     id="layer16"
     inkscape:label="iPod default"
     style="display:none"
     sodipodi:insensitive="true">
    <g
       transform="matrix(1.5454897,0,0,1.5454897,-1052.7526,-2537.8306)"
       id="ipod">
      <rect
         style="opacity:0.3"
         x="710"
         y="1661"
         width="20"
         height="15"
         id="rect10198" />
      <path
         inkscape:connector-curvature="0"
         d="m 723.188,1689.107 c 0,1.76 -1.428,3.188 -3.188,3.188 -1.76,0 -3.188,-1.428 -3.188,-3.188 0,-1.761 1.428,-3.188 3.188,-3.188 1.76,0 3.188,1.428 3.188,3.188 z m 9.812,10.161 c 0,1.509 -1.224,2.732 -2.732,2.732 h -20.535 c -1.509,0 -2.732,-1.224 -2.732,-2.732 v -38.535 c 0,-1.509 1.224,-2.732 2.732,-2.732 h 20.535 c 1.509,0 2.732,1.224 2.732,2.732 v 38.535 z m -4.804,-10.161 c 0,-4.527 -3.669,-8.196 -8.196,-8.196 -4.527,0 -8.196,3.669 -8.196,8.196 0,4.526 3.669,8.196 8.196,8.196 4.527,0 8.196,-3.669 8.196,-8.196 z M 730,1661 h -20 v 15 h 20 v -15 z"
         id="path10200" />
    </g>
  </g>
  <g
     inkscape:groupmode="layer"
     id="layer2"
     inkscape:label="loop default"
     style="display:none"
     transform="translate(0,6)"
     sodipodi:insensitive="true">
    <g
       transform="matrix(1.31957,0,0,1.3357002,-383.24334,-1163.69)"
       id="roundabout-5">
      <path
         inkscape:connector-curvature="0"
         d="m 330.654,900.894 -14.385,3.598 0.549,-15.064 4.488,3.721 c 2.416,-1.891 5.221,-3.359 8.363,-4.223 8.57,-2.354 17.32,0.27 23.219,6.096 l -5.426,3.176 c -4.369,-3.592 -10.348,-5.092 -16.205,-3.484 -1.877,0.516 -3.611,1.334 -5.186,2.385 l 4.583,3.795 z m -2.595,27.293 c -4.447,-2.199 -7.979,-6.201 -9.393,-11.352 -0.723,-2.633 -0.818,-5.332 -0.348,-7.939 L 312.88,905.8 c -1.09,4.004 -1.18,8.332 0,12.623 2.066,7.529 7.504,13.211 14.234,15.904 l -0.945,6.146 13.207,-7.271 -10.476,-10.488 -0.841,5.473 z m 37.017,-22.098 -13.143,-7.387 -3.389,14.434 5.406,-2.305 c 0.254,3.51 -0.504,7.016 -2.285,10.143 -2.168,3.811 -5.582,6.629 -9.684,8.061 l -0.006,6.268 c 0.135,-0.035 0.268,-0.053 0.4,-0.09 6.391,-1.754 11.465,-5.932 14.504,-11.271 2.617,-4.6 3.711,-10.061 2.848,-15.57 l 5.349,-2.283 z"
         id="path8916-9" />
    </g>
  </g>
  <g
     inkscape:groupmode="layer"
     id="layer12"
     inkscape:label="phone default"
     style="display:none"
     sodipodi:insensitive="true">
    <g
       transform="matrix(1.4166667,0,0,1.4166667,-552.00001,-2318.5834)"
       id="iphone_3_">
      <rect
         style="opacity:0.3"
         x="422"
         y="1664"
         width="20"
         height="30"
         id="rect10213" />
      <path
         inkscape:connector-curvature="0"
         id="iphone_2_"
         d="m 440,1656 h -16 c -2.75,0 -5,2.25 -5,5 v 38 c 0,2.75 2.25,5 5,5 h 16 c 2.75,0 5,-2.25 5,-5 v -38 c 0,-2.75 -2.25,-5 -5,-5 z m -10,4 h 4 c 0.55,0 1,0 1,0.5 0,0.5 -0.45,0.5 -1,0.5 h -4 c -0.55,0 -1,0 -1,-0.5 0,-0.5 0.45,-0.5 1,-0.5 z m 2,42 c -1.657,0 -3,-1.343 -3,-3 0,-1.657 1.343,-3 3,-3 1.657,0 3,1.343 3,3 0,1.657 -1.343,3 -3,3 z m -10,-8 v -30 h 20 v 30 h -20 z" />
    </g>
  </g>
  <g
     inkscape:groupmode="layer"
     id="layer14"
     inkscape:label="timer default"
     style="display:none"
     sodipodi:insensitive="true">
    <path
       inkscape:connector-curvature="0"
       id="stopwatch-9"
       d="m 60.159102,36.877878 c -16.022076,0 -29.056604,13.034528 -29.056604,29.056603 0,16.022076 13.034528,29.056604 29.056604,29.056604 16.022075,0 29.056603,-13.034528 29.056603,-29.056604 0,-16.022075 -13.034528,-29.056603 -29.056603,-29.056603 z m 0,50.188679 c -11.651698,0 -21.132076,-9.480378 -21.132076,-21.132076 0,-11.651698 9.480378,-21.132075 21.132076,-21.132075 11.651698,0 21.132075,9.480377 21.132075,21.132075 0,11.651698 -9.480377,21.132076 -21.132075,21.132076 z m 5.283019,-21.132076 c 0,1.950755 -1.069812,3.634717 -2.64151,4.55 v 1.998302 c 0,0.726415 -0.59434,1.376226 -1.320754,1.376226 h -2.64151 c -0.726415,0 -1.320755,-0.649811 -1.320755,-1.376226 v -1.998302 c -1.571698,-0.915283 -2.641509,-2.600566 -2.641509,-4.55 0,-1.949434 1.069811,-3.634717 2.641509,-4.55 V 50.085424 c 0,-0.726415 0.59434,-1.320754 1.320755,-1.320754 h 2.64151 c 0.726414,0 1.320754,0.594339 1.320754,1.320754 v 11.299057 c 1.571698,0.915283 2.64151,2.599245 2.64151,4.55 z M 60.159102,32.586746 c -1.341887,0 -2.662642,0.08981 -3.962265,0.24698 V 26.31184 c 0,-0.726416 0.59434,-1.320755 1.320755,-1.320755 h 5.283019 c 0.726415,0 1.320755,0.594339 1.320755,1.320755 v 6.521886 c -1.299623,-0.157169 -2.620378,-0.24698 -3.962264,-0.24698 z m 30.704906,9.03 -3.910755,3.909433 C 86.144951,44.497312 85.274574,43.500141 84.326271,42.550519 83.37797,41.602217 82.37948,40.73184 81.350611,39.923538 l 3.909434,-3.909435 c 0.515094,-0.513773 1.353774,-0.513773 1.868868,0 l 3.735095,3.735095 c 0.513773,0.512453 0.513773,1.353774 0,1.867548 z" />
  </g>
  <g
     inkscape:groupmode="layer"
     id="layer10"
     inkscape:label="Base Layer Highlighted Sub"
     style="display:inline"
     transform="translate(0,6)"
     sodipodi:insensitive="true">
    <rect
       style="fill:#5dff04;fill-opacity:1;fill-rule:evenodd;stroke:none"
       id="rect9316"
       width="98"
       height="98"
       x="11"
       y="5" />
  </g>
  <g
     style="opacity:0.88999999;display:inline"
     inkscape:label="Base Layer Highlighted"
     id="g7426"
     inkscape:groupmode="layer"
     transform="translate(0,6)"
     sodipodi:insensitive="true">
    <rect
       style="fill:none;stroke:none"
       id="rect9416"
       width="35.606949"
       height="50.809925"
       x="5.719975"
       y="3.1900752" />
    <rect
       style="fill:none;stroke:#787878;stroke-width:15.05161572;stroke-linejoin:round;stroke-miterlimit:4;stroke-opacity:1;stroke-dasharray:none"
       id="rect9418"
       width="104.94839"
       height="104.94839"
       x="7.5258079"
       y="1.525805"
       inkscape:export-filename="/Users/main_brain/Documents/Xcoding/PropPhone/Phone Graphics/png/loopButtHighlighted.png"
       inkscape:export-xdpi="90"
       inkscape:export-ydpi="90" />
  </g>
  <g
     style="display:none"
     inkscape:label="loop highlighted"
     id="g7430"
     inkscape:groupmode="layer"
     transform="translate(0,6)"
     sodipodi:insensitive="true">
    <g
       transform="matrix(1.8851,0,0,1.9081431,-572.34448,-1685.259)"
       id="roundabout">
      <path
         inkscape:connector-curvature="0"
         d="m 330.19764,900.73779 -14.385,3.598 0.549,-15.064 4.488,3.721 c 2.416,-1.891 5.221,-3.359 8.363,-4.223 8.57,-2.354 17.32,0.27 23.219,6.096 l -5.426,3.176 c -4.369,-3.592 -10.348,-5.092 -16.205,-3.484 -1.877,0.516 -3.611,1.334 -5.186,2.385 l 4.583,3.795 z m -2.595,27.293 c -4.447,-2.199 -7.979,-6.201 -9.393,-11.352 -0.723,-2.633 -0.818,-5.332 -0.348,-7.939 l -5.438,-3.096 c -1.09,4.004 -1.18,8.332 0,12.623 2.066,7.529 7.504,13.211 14.234,15.904 l -0.945,6.146 13.207,-7.271 -10.476,-10.488 -0.841,5.473 z m 37.017,-22.098 -13.143,-7.387 -3.389,14.434 5.406,-2.305 c 0.254,3.51 -0.504,7.016 -2.285,10.143 -2.168,3.811 -5.582,6.629 -9.684,8.061 l -0.006,6.268 c 0.135,-0.035 0.268,-0.053 0.4,-0.09 6.391,-1.754 11.465,-5.932 14.504,-11.271 2.617,-4.6 3.711,-10.061 2.848,-15.57 l 5.349,-2.283 z"
         id="path8916" />
    </g>
  </g>
  <g
     inkscape:groupmode="layer"
     id="layer13"
     inkscape:label="phone hightlighted"
     style="display:none"
     sodipodi:insensitive="true">
    <g
       transform="matrix(2.0833333,0,0,2.0833333,-839.99998,-3437.9166)"
       id="iphone_3_-4">
      <rect
         style="opacity:0.3"
         x="422"
         y="1664"
         width="20"
         height="30"
         id="rect10213-7" />
      <path
         inkscape:connector-curvature="0"
         id="iphone_2_-9"
         d="m 440,1656 h -16 c -2.75,0 -5,2.25 -5,5 v 38 c 0,2.75 2.25,5 5,5 h 16 c 2.75,0 5,-2.25 5,-5 v -38 c 0,-2.75 -2.25,-5 -5,-5 z m -10,4 h 4 c 0.55,0 1,0 1,0.5 0,0.5 -0.45,0.5 -1,0.5 h -4 c -0.55,0 -1,0 -1,-0.5 0,-0.5 0.45,-0.5 1,-0.5 z m 2,42 c -1.657,0 -3,-1.343 -3,-3 0,-1.657 1.343,-3 3,-3 1.657,0 3,1.343 3,3 0,1.657 -1.343,3 -3,3 z m -10,-8 v -30 h 20 v 30 h -20 z" />
    </g>
  </g>
  <g
     inkscape:groupmode="layer"
     id="layer15"
     inkscape:label="timer highlighted"
     style="display:none"
     sodipodi:insensitive="true">
    <path
       inkscape:connector-curvature="0"
       id="stopwatch"
       d="m 60.154662,24.508435 c -22.88868,0 -41.509436,18.620756 -41.509436,41.509436 0,22.88868 18.620756,41.509429 41.509436,41.509429 22.888681,0 41.509438,-18.620749 41.509438,-41.509429 0,-22.88868 -18.620757,-41.509436 -41.509438,-41.509436 z m 0,71.698116 c -16.645284,0 -30.18868,-13.543397 -30.18868,-30.18868 0,-16.645283 13.543396,-30.18868 30.18868,-30.18868 16.645284,0 30.188684,13.543397 30.188684,30.18868 0,16.645283 -13.5434,30.18868 -30.188684,30.18868 z m 7.547171,-30.18868 c 0,2.786792 -1.528303,5.192453 -3.773586,6.5 v 2.854718 c 0,1.037735 -0.849057,1.966037 -1.886793,1.966037 H 58.26787 c -1.037736,0 -1.886793,-0.928302 -1.886793,-1.966037 v -2.854718 c -2.245283,-1.307547 -3.773585,-3.715093 -3.773585,-6.5 0,-2.784906 1.528302,-5.192453 3.773585,-6.5 v -16.14151 c 0,-1.037737 0.849057,-1.886793 1.886793,-1.886793 h 3.773584 c 1.037736,0 1.886793,0.849056 1.886793,1.886793 v 16.14151 c 2.245283,1.307547 3.773586,3.713208 3.773586,6.5 z M 60.154662,18.378245 c -1.916982,0 -3.803774,0.128303 -5.660377,0.352831 V 9.4140925 c 0,-1.037737 0.849055,-1.8867955 1.886792,-1.8867955 h 7.54717 c 1.037737,0 1.886792,0.8490585 1.886792,1.8867955 v 9.3169835 c -1.856603,-0.224528 -3.743396,-0.352831 -5.660377,-0.352831 z m 43.864158,12.900001 -5.586794,5.584906 c -1.15472,-1.469811 -2.39812,-2.89434 -3.75283,-4.250942 -1.35472,-1.354718 -2.78114,-2.598114 -4.25095,-3.752831 l 5.58491,-5.584906 c 0.73585,-0.733962 1.93396,-0.733962 2.66981,0 l 5.335854,5.335849 c 0.73397,0.732076 0.73397,1.933962 0,2.667924 z" />
  </g>
  <g
     inkscape:groupmode="layer"
     id="layer17"
     inkscape:label="iPod highlighted"
     style="display:none"
     sodipodi:insensitive="true">
    <g
       transform="matrix(2.2727789,0,0,2.2727789,-1576.4019,-3758.2697)"
       id="ipod-5">
      <rect
         style="opacity:0.3"
         x="710"
         y="1661"
         width="20"
         height="15"
         id="rect10198-7" />
      <path
         inkscape:connector-curvature="0"
         d="m 723.188,1689.107 c 0,1.76 -1.428,3.188 -3.188,3.188 -1.76,0 -3.188,-1.428 -3.188,-3.188 0,-1.761 1.428,-3.188 3.188,-3.188 1.76,0 3.188,1.428 3.188,3.188 z m 9.812,10.161 c 0,1.509 -1.224,2.732 -2.732,2.732 h -20.535 c -1.509,0 -2.732,-1.224 -2.732,-2.732 v -38.535 c 0,-1.509 1.224,-2.732 2.732,-2.732 h 20.535 c 1.509,0 2.732,1.224 2.732,2.732 v 38.535 z m -4.804,-10.161 c 0,-4.527 -3.669,-8.196 -8.196,-8.196 -4.527,0 -8.196,3.669 -8.196,8.196 0,4.526 3.669,8.196 8.196,8.196 4.527,0 8.196,-3.669 8.196,-8.196 z M 730,1661 h -20 v 15 h 20 v -15 z"
         id="path10200-9" />
    </g>
  </g>
</svg>
